<svg width="177" height="177" viewBox="0 0 177 177" fill="none" xmlns="http://www.w3.org/2000/svg">
<g id="Frame 9">
<rect width="177" height="177" fill="white"/>
<g id="Steps_4">
<path id="Ellipse 1" opacity="0.8" d="M140.5 24.5C140.5 27.8137 137.814 30.5 134.5 30.5C131.186 30.5 128.5 27.8137 128.5 24.5C128.5 21.1863 131.186 18.5 134.5 18.5C137.814 18.5 140.5 21.1863 140.5 24.5Z" fill="#B7322F" stroke="#FFFBFB"/>
<path id="Ellipse 5" opacity="0.8" d="M154.5 24.5C154.5 27.8137 151.814 30.5 148.5 30.5C145.186 30.5 142.5 27.8137 142.5 24.5C142.5 21.1863 145.186 18.5 148.5 18.5C151.814 18.5 154.5 21.1863 154.5 24.5Z" fill="#B7322F" stroke="#FFFBFB"/>
<path id="Ellipse 6" opacity="0.8" d="M140.5 38.5C140.5 41.8137 137.814 44.5 134.5 44.5C131.186 44.5 128.5 41.8137 128.5 38.5C128.5 35.1863 131.186 32.5 134.5 32.5C137.814 32.5 140.5 35.1863 140.5 38.5Z" fill="#B7322F" stroke="#FFFBFB"/>
<path id="Ellipse 7" opacity="0.8" d="M154.5 38.5C154.5 41.8137 151.814 44.5 148.5 44.5C145.186 44.5 142.5 41.8137 142.5 38.5C142.5 35.1863 145.186 32.5 148.5 32.5C151.814 32.5 154.5 35.1863 154.5 38.5Z" fill="black" stroke="#FFFBFB"/>
</g>
<g id="Rancs">
<g id="Rectangle 6" filter="url(#filter0_d_27_20)">
<rect x="20" y="44.8727" width="28" height="41.2364" fill="#F9E282"/>
<rect x="20" y="44.8727" width="28" height="41.2364" stroke="#60646E"/>
</g>
<path id="A" d="M26.0626 80L31.0866 54.08H36.9426L41.9346 80H37.0386L36.1106 74.304H32.0146L31.0226 80H26.0626ZM32.4946 71.072H35.5986L34.0306 60.608L32.4946 71.072Z" fill="black"/>
</g>
<g id="MF">
<rect x="124" y="124" width="36" height="36" rx="3" fill="black"/>
<g id="atom">
<path id="88" opacity="0.88" d="M133.784 158.236C132.081 158.236 130.716 157.898 129.689 157.221C128.663 156.544 127.916 155.588 127.449 154.351C127.006 153.091 126.784 151.621 126.784 149.941C126.784 148.984 126.866 148.144 127.029 147.421C127.193 146.698 127.426 146.068 127.729 145.531C128.056 144.971 128.429 144.493 128.849 144.096C129.293 143.676 129.771 143.303 130.284 142.976C129.351 142.346 128.593 141.529 128.009 140.526C127.426 139.499 127.134 138.204 127.134 136.641C127.134 135.148 127.368 133.853 127.834 132.756C128.301 131.659 129.024 130.819 130.004 130.236C131.008 129.629 132.268 129.326 133.784 129.326C135.301 129.326 136.538 129.629 137.494 130.236C138.474 130.819 139.198 131.659 139.664 132.756C140.131 133.853 140.364 135.148 140.364 136.641C140.364 138.228 140.073 139.523 139.489 140.526C138.929 141.529 138.171 142.346 137.214 142.976C137.728 143.303 138.194 143.676 138.614 144.096C139.058 144.493 139.431 144.971 139.734 145.531C140.061 146.068 140.306 146.698 140.469 147.421C140.656 148.144 140.749 148.984 140.749 149.941C140.749 151.621 140.516 153.091 140.049 154.351C139.606 155.588 138.871 156.544 137.844 157.221C136.841 157.898 135.488 158.236 133.784 158.236ZM133.784 155.261C134.694 155.261 135.394 155.028 135.884 154.561C136.374 154.094 136.701 153.464 136.864 152.671C137.051 151.878 137.144 150.991 137.144 150.011C137.144 149.124 137.039 148.296 136.829 147.526C136.643 146.733 136.304 146.091 135.814 145.601C135.324 145.088 134.648 144.831 133.784 144.831C132.921 144.831 132.233 145.076 131.719 145.566C131.229 146.056 130.879 146.698 130.669 147.491C130.459 148.261 130.354 149.101 130.354 150.011C130.354 150.991 130.448 151.878 130.634 152.671C130.821 153.464 131.159 154.094 131.649 154.561C132.163 155.028 132.874 155.261 133.784 155.261ZM133.784 141.261C134.578 141.238 135.173 140.993 135.569 140.526C135.989 140.059 136.281 139.464 136.444 138.741C136.608 137.994 136.689 137.224 136.689 136.431C136.689 135.264 136.479 134.273 136.059 133.456C135.639 132.639 134.881 132.231 133.784 132.231C132.688 132.231 131.918 132.639 131.474 133.456C131.031 134.273 130.809 135.264 130.809 136.431C130.809 137.224 130.891 137.994 131.054 138.741C131.218 139.464 131.509 140.059 131.929 140.526C132.373 140.993 132.991 141.238 133.784 141.261ZM151.25 158.236C149.547 158.236 148.182 157.898 147.155 157.221C146.128 156.544 145.382 155.588 144.915 154.351C144.472 153.091 144.25 151.621 144.25 149.941C144.25 148.984 144.332 148.144 144.495 147.421C144.658 146.698 144.892 146.068 145.195 145.531C145.522 144.971 145.895 144.493 146.315 144.096C146.758 143.676 147.237 143.303 147.75 142.976C146.817 142.346 146.058 141.529 145.475 140.526C144.892 139.499 144.6 138.204 144.6 136.641C144.6 135.148 144.833 133.853 145.3 132.756C145.767 131.659 146.49 130.819 147.47 130.236C148.473 129.629 149.733 129.326 151.25 129.326C152.767 129.326 154.003 129.629 154.96 130.236C155.94 130.819 156.663 131.659 157.13 132.756C157.597 133.853 157.83 135.148 157.83 136.641C157.83 138.228 157.538 139.523 156.955 140.526C156.395 141.529 155.637 142.346 154.68 142.976C155.193 143.303 155.66 143.676 156.08 144.096C156.523 144.493 156.897 144.971 157.2 145.531C157.527 146.068 157.772 146.698 157.935 147.421C158.122 148.144 158.215 148.984 158.215 149.941C158.215 151.621 157.982 153.091 157.515 154.351C157.072 155.588 156.337 156.544 155.31 157.221C154.307 157.898 152.953 158.236 151.25 158.236ZM151.25 155.261C152.16 155.261 152.86 155.028 153.35 154.561C153.84 154.094 154.167 153.464 154.33 152.671C154.517 151.878 154.61 150.991 154.61 150.011C154.61 149.124 154.505 148.296 154.295 147.526C154.108 146.733 153.77 146.091 153.28 145.601C152.79 145.088 152.113 144.831 151.25 144.831C150.387 144.831 149.698 145.076 149.185 145.566C148.695 146.056 148.345 146.698 148.135 147.491C147.925 148.261 147.82 149.101 147.82 150.011C147.82 150.991 147.913 151.878 148.1 152.671C148.287 153.464 148.625 154.094 149.115 154.561C149.628 155.028 150.34 155.261 151.25 155.261ZM151.25 141.261C152.043 141.238 152.638 140.993 153.035 140.526C153.455 140.059 153.747 139.464 153.91 138.741C154.073 137.994 154.155 137.224 154.155 136.431C154.155 135.264 153.945 134.273 153.525 133.456C153.105 132.639 152.347 132.231 151.25 132.231C150.153 132.231 149.383 132.639 148.94 133.456C148.497 134.273 148.275 135.264 148.275 136.431C148.275 137.224 148.357 137.994 148.52 138.741C148.683 139.464 148.975 140.059 149.395 140.526C149.838 140.993 150.457 141.238 151.25 141.261Z" fill="white"/>
</g>
</g>
</g>
<defs>
<filter id="filter0_d_27_20" x="15.5" y="44.3727" width="37" height="50.2364" filterUnits="userSpaceOnUse" color-interpolation-filters="sRGB">
<feFlood flood-opacity="0" result="BackgroundImageFix"/>
<feColorMatrix in="SourceAlpha" type="matrix" values="0 0 0 0 0 0 0 0 0 0 0 0 0 0 0 0 0 0 127 0" result="hardAlpha"/>
<feOffset dy="4"/>
<feGaussianBlur stdDeviation="2"/>
<feComposite in2="hardAlpha" operator="out"/>
<feColorMatrix type="matrix" values="0 0 0 0 0 0 0 0 0 0 0 0 0 0 0 0 0 0 0.25 0"/>
<feBlend mode="normal" in2="BackgroundImageFix" result="effect1_dropShadow_27_20"/>
<feBlend mode="normal" in="SourceGraphic" in2="effect1_dropShadow_27_20" result="shape"/>
</filter>
</defs>
</svg>
