<svg width="177" height="177" viewBox="0 0 177 177" fill="none" xmlns="http://www.w3.org/2000/svg">
<g id="unit">
<g id="Bottom" filter="url(#filter0_d_30_85)">
<rect width="177" height="177" rx="5" fill="#495173"/>
<rect width="177" height="177" rx="5" stroke="#727994"/>
</g>
<g id="Main">
<path d="M0 140H177V174C177 175.657 175.657 177 174 177H3C1.34315 177 0 175.657 0 174V140Z" fill="#8C4B40"/>
<path d="M0 140H177H0ZM177.5 174C177.5 175.933 175.933 177.5 174 177.5H3C1.067 177.5 -0.5 175.933 -0.5 174H0.5C0.5 175.381 1.61929 176.5 3 176.5H174C175.381 176.5 176.5 175.381 176.5 174H177.5ZM3 177.5C1.067 177.5 -0.5 175.933 -0.5 174V140H0.5V174C0.5 175.381 1.61929 176.5 3 176.5V177.5ZM177.5 140V174C177.5 175.933 175.933 177.5 174 177.5V176.5C175.381 176.5 176.5 175.381 176.5 174V140H177.5Z" fill="#A7756C"/>
</g>
<path id="Rectangle 11" d="M58 0H118V42L114 46H62L58 42L58 0Z" fill="#CC8A63"/>
<g id="ARF">
<g id="Rectangle 3" filter="url(#filter1_b_30_85)">
<rect x="64" y="125" width="48" height="36" rx="3" fill="#FFFBFB"/>
<rect x="64" y="125" width="48" height="36" rx="3" stroke="#E8E8E8"/>
</g>
<g id="/">
<path d="M82.7019 157L90.4459 131.08H93.2939L85.5179 157H82.7019Z" fill="#9A9B9B"/>
<path d="M82.7019 157L82.2228 156.857L82.0307 157.5H82.7019V157ZM90.4459 131.08V130.58H90.0734L89.9668 130.937L90.4459 131.08ZM93.2939 131.08L93.7728 131.224L93.9659 130.58H93.2939V131.08ZM85.5179 157V157.5H85.8899L85.9968 157.144L85.5179 157ZM83.181 157.143L90.925 131.223L89.9668 130.937L82.2228 156.857L83.181 157.143ZM90.4459 131.58H93.2939V130.58H90.4459V131.58ZM92.815 130.936L85.039 156.856L85.9968 157.144L93.7728 131.224L92.815 130.936ZM85.5179 156.5H82.7019V157.5H85.5179V156.5Z" fill="#FFF9F9"/>
</g>
<g id="ABU" opacity="0.8">
<path d="M76.2231 159.385C74.4265 159.385 72.9565 158.988 71.8131 158.195C70.6931 157.378 69.8648 156.27 69.3281 154.87C68.8148 153.47 68.5581 151.872 68.5581 150.075V139.995C68.5581 138.152 68.7681 136.495 69.1881 135.025C69.6315 133.555 70.4015 132.4 71.4981 131.56C72.5948 130.72 74.1581 130.3 76.1881 130.3C77.9381 130.3 79.3265 130.58 80.3531 131.14C81.4031 131.677 82.1615 132.482 82.6281 133.555C83.0948 134.628 83.3281 135.947 83.3281 137.51C83.3281 137.58 83.3281 137.662 83.3281 137.755C83.3515 137.825 83.3631 137.895 83.3631 137.965H78.2531C78.2531 136.775 78.1365 135.888 77.9031 135.305C77.6698 134.722 77.1098 134.43 76.2231 134.43C75.6631 134.43 75.2198 134.605 74.8931 134.955C74.5898 135.305 74.3681 135.9 74.2281 136.74C74.1115 137.557 74.0531 138.688 74.0531 140.135V143.04C74.3565 142.527 74.8231 142.13 75.4531 141.85C76.1065 141.57 76.8531 141.418 77.6931 141.395C79.1865 141.348 80.3765 141.687 81.2631 142.41C82.1731 143.11 82.8265 144.09 83.2231 145.35C83.6198 146.587 83.8181 147.987 83.8181 149.55C83.8181 151.463 83.5848 153.167 83.1181 154.66C82.6515 156.153 81.8581 157.32 80.7381 158.16C79.6415 158.977 78.1365 159.385 76.2231 159.385ZM76.2931 155.36C76.8765 155.36 77.3081 155.162 77.5881 154.765C77.8915 154.368 78.0898 153.808 78.1831 153.085C78.2998 152.362 78.3581 151.487 78.3581 150.46C78.3581 149.48 78.3231 148.628 78.2531 147.905C78.2065 147.158 78.0315 146.575 77.7281 146.155C77.4248 145.735 76.9231 145.525 76.2231 145.525C75.8965 145.525 75.5815 145.595 75.2781 145.735C74.9981 145.852 74.7531 146.015 74.5431 146.225C74.3331 146.412 74.1698 146.61 74.0531 146.82V151.335C74.0531 152.035 74.1115 152.7 74.2281 153.33C74.3681 153.937 74.6015 154.427 74.9281 154.8C75.2548 155.173 75.7098 155.36 76.2931 155.36Z" fill="black"/>
<path d="M71.8131 158.195L71.5185 158.599L71.5281 158.606L71.8131 158.195ZM69.3281 154.87L68.8586 155.042L68.8613 155.049L69.3281 154.87ZM69.1881 135.025L68.7094 134.881L68.7074 134.888L69.1881 135.025ZM80.3531 131.14L80.1136 131.579L80.1256 131.585L80.3531 131.14ZM82.6281 133.555L82.1696 133.754L82.6281 133.555ZM83.3281 137.755H82.8281V137.836L82.8538 137.913L83.3281 137.755ZM83.3631 137.965V138.465H83.8631V137.965H83.3631ZM78.2531 137.965H77.7531V138.465H78.2531V137.965ZM77.9031 135.305L78.3674 135.119V135.119L77.9031 135.305ZM74.8931 134.955L74.5276 134.614L74.5213 134.621L74.5153 134.628L74.8931 134.955ZM74.2281 136.74L73.7348 136.658L73.7332 136.669L74.2281 136.74ZM74.0531 143.04H73.5531V144.869L74.4836 143.294L74.0531 143.04ZM75.4531 141.85L75.2561 141.39L75.2501 141.393L75.4531 141.85ZM77.6931 141.395L77.707 141.895L77.7087 141.895L77.6931 141.395ZM81.2631 142.41L80.9471 142.797L80.9526 142.802L80.9583 142.806L81.2631 142.41ZM83.2231 145.35L82.7462 145.5L82.747 145.503L83.2231 145.35ZM83.1181 154.66L82.6409 154.511L83.1181 154.66ZM80.7381 158.16L81.0368 158.561L81.0381 158.56L80.7381 158.16ZM77.5881 154.765L77.1909 154.461L77.1851 154.469L77.1796 154.477L77.5881 154.765ZM78.1831 153.085L77.6895 153.005L77.6882 153.013L77.6872 153.021L78.1831 153.085ZM78.2531 147.905L77.7541 147.936L77.7546 147.945L77.7555 147.953L78.2531 147.905ZM77.7281 146.155L78.1335 145.862L77.7281 146.155ZM75.2781 145.735L75.4704 146.197L75.4791 146.193L75.4877 146.189L75.2781 145.735ZM74.5431 146.225L74.8753 146.599L74.8863 146.589L74.8967 146.579L74.5431 146.225ZM74.0531 146.82L73.616 146.577L73.5531 146.69V146.82H74.0531ZM74.2281 153.33L73.7365 153.421L73.7385 153.432L73.7409 153.442L74.2281 153.33ZM74.9281 154.8L74.5518 155.129L74.9281 154.8ZM76.2231 158.885C74.4988 158.885 73.1364 158.505 72.0982 157.784L71.5281 158.606C72.7765 159.472 74.3541 159.885 76.2231 159.885V158.885ZM72.1077 157.791C71.072 157.036 70.3001 156.009 69.795 154.691L68.8613 155.049C69.4295 156.531 70.3142 157.721 71.5185 158.599L72.1077 157.791ZM69.7976 154.698C69.3081 153.363 69.0581 151.825 69.0581 150.075H68.0581C68.0581 151.919 68.3215 153.577 68.8587 155.042L69.7976 154.698ZM69.0581 150.075V139.995H68.0581V150.075H69.0581ZM69.0581 139.995C69.0581 138.189 69.264 136.58 69.6689 135.162L68.7074 134.888C68.2723 136.41 68.0581 138.114 68.0581 139.995H69.0581ZM69.6668 135.169C70.0834 133.788 70.798 132.726 71.8022 131.957L71.1941 131.163C70.0049 132.074 69.1795 133.322 68.7094 134.881L69.6668 135.169ZM71.8022 131.957C72.779 131.209 74.2185 130.8 76.1881 130.8V129.8C74.0978 129.8 72.4105 130.231 71.1941 131.163L71.8022 131.957ZM76.1881 130.8C77.8928 130.8 79.188 131.074 80.1137 131.579L80.5926 130.701C79.4649 130.086 77.9835 129.8 76.1881 129.8V130.8ZM80.1256 131.585C81.0733 132.07 81.7495 132.788 82.1696 133.754L83.0867 133.356C82.5734 132.175 81.733 131.284 80.5807 130.695L80.1256 131.585ZM82.1696 133.754C82.6014 134.747 82.8281 135.993 82.8281 137.51H83.8281C83.8281 135.9 83.5882 134.509 83.0867 133.356L82.1696 133.754ZM82.8281 137.51C82.8281 137.51 82.8281 137.51 82.8281 137.51C82.8281 137.511 82.8281 137.511 82.8281 137.511C82.8281 137.511 82.8281 137.511 82.8281 137.511C82.8281 137.511 82.8281 137.512 82.8281 137.512C82.8281 137.512 82.8281 137.512 82.8281 137.512C82.8281 137.512 82.8281 137.512 82.8281 137.512C82.8281 137.513 82.8281 137.513 82.8281 137.513C82.8281 137.513 82.8281 137.513 82.8281 137.513C82.8281 137.513 82.8281 137.514 82.8281 137.514C82.8281 137.514 82.8281 137.514 82.8281 137.514C82.8281 137.514 82.8281 137.514 82.8281 137.515C82.8281 137.515 82.8281 137.515 82.8281 137.515C82.8281 137.515 82.8281 137.515 82.8281 137.515C82.8281 137.515 82.8281 137.516 82.8281 137.516C82.8281 137.516 82.8281 137.516 82.8281 137.516C82.8281 137.516 82.8281 137.516 82.8281 137.517C82.8281 137.517 82.8281 137.517 82.8281 137.517C82.8281 137.517 82.8281 137.517 82.8281 137.517C82.8281 137.518 82.8281 137.518 82.8281 137.518C82.8281 137.518 82.8281 137.518 82.8281 137.518C82.8281 137.518 82.8281 137.519 82.8281 137.519C82.8281 137.519 82.8281 137.519 82.8281 137.519C82.8281 137.519 82.8281 137.519 82.8281 137.52C82.8281 137.52 82.8281 137.52 82.8281 137.52C82.8281 137.52 82.8281 137.52 82.8281 137.52C82.8281 137.52 82.8281 137.521 82.8281 137.521C82.8281 137.521 82.8281 137.521 82.8281 137.521C82.8281 137.521 82.8281 137.521 82.8281 137.522C82.8281 137.522 82.8281 137.522 82.8281 137.522C82.8281 137.522 82.8281 137.522 82.8281 137.522C82.8281 137.523 82.8281 137.523 82.8281 137.523C82.8281 137.523 82.8281 137.523 82.8281 137.523C82.8281 137.523 82.8281 137.524 82.8281 137.524C82.8281 137.524 82.8281 137.524 82.8281 137.524C82.8281 137.524 82.8281 137.524 82.8281 137.525C82.8281 137.525 82.8281 137.525 82.8281 137.525C82.8281 137.525 82.8281 137.525 82.8281 137.525C82.8281 137.525 82.8281 137.526 82.8281 137.526C82.8281 137.526 82.8281 137.526 82.8281 137.526C82.8281 137.526 82.8281 137.526 82.8281 137.527C82.8281 137.527 82.8281 137.527 82.8281 137.527C82.8281 137.527 82.8281 137.527 82.8281 137.527C82.8281 137.528 82.8281 137.528 82.8281 137.528C82.8281 137.528 82.8281 137.528 82.8281 137.528C82.8281 137.528 82.8281 137.529 82.8281 137.529C82.8281 137.529 82.8281 137.529 82.8281 137.529C82.8281 137.529 82.8281 137.529 82.8281 137.53C82.8281 137.53 82.8281 137.53 82.8281 137.53C82.8281 137.53 82.8281 137.53 82.8281 137.53C82.8281 137.531 82.8281 137.531 82.8281 137.531C82.8281 137.531 82.8281 137.531 82.8281 137.531C82.8281 137.531 82.8281 137.532 82.8281 137.532C82.8281 137.532 82.8281 137.532 82.8281 137.532C82.8281 137.532 82.8281 137.532 82.8281 137.533C82.8281 137.533 82.8281 137.533 82.8281 137.533C82.8281 137.533 82.8281 137.533 82.8281 137.533C82.8281 137.534 82.8281 137.534 82.8281 137.534C82.8281 137.534 82.8281 137.534 82.8281 137.534C82.8281 137.534 82.8281 137.535 82.8281 137.535C82.8281 137.535 82.8281 137.535 82.8281 137.535C82.8281 137.535 82.8281 137.535 82.8281 137.536C82.8281 137.536 82.8281 137.536 82.8281 137.536C82.8281 137.536 82.8281 137.536 82.8281 137.536C82.8281 137.537 82.8281 137.537 82.8281 137.537C82.8281 137.537 82.8281 137.537 82.8281 137.537C82.8281 137.537 82.8281 137.538 82.8281 137.538C82.8281 137.538 82.8281 137.538 82.8281 137.538C82.8281 137.538 82.8281 137.538 82.8281 137.539C82.8281 137.539 82.8281 137.539 82.8281 137.539C82.8281 137.539 82.8281 137.539 82.8281 137.539C82.8281 137.54 82.8281 137.54 82.8281 137.54C82.8281 137.54 82.8281 137.54 82.8281 137.54C82.8281 137.54 82.8281 137.541 82.8281 137.541C82.8281 137.541 82.8281 137.541 82.8281 137.541C82.8281 137.541 82.8281 137.541 82.8281 137.542C82.8281 137.542 82.8281 137.542 82.8281 137.542C82.8281 137.542 82.8281 137.542 82.8281 137.542C82.8281 137.543 82.8281 137.543 82.8281 137.543C82.8281 137.543 82.8281 137.543 82.8281 137.543C82.8281 137.543 82.8281 137.544 82.8281 137.544C82.8281 137.544 82.8281 137.544 82.8281 137.544C82.8281 137.544 82.8281 137.544 82.8281 137.545C82.8281 137.545 82.8281 137.545 82.8281 137.545C82.8281 137.545 82.8281 137.545 82.8281 137.545C82.8281 137.546 82.8281 137.546 82.8281 137.546C82.8281 137.546 82.8281 137.546 82.8281 137.546C82.8281 137.546 82.8281 137.547 82.8281 137.547C82.8281 137.547 82.8281 137.547 82.8281 137.547C82.8281 137.547 82.8281 137.547 82.8281 137.548C82.8281 137.548 82.8281 137.548 82.8281 137.548C82.8281 137.548 82.8281 137.548 82.8281 137.548C82.8281 137.549 82.8281 137.549 82.8281 137.549C82.8281 137.549 82.8281 137.549 82.8281 137.549C82.8281 137.549 82.8281 137.55 82.8281 137.55C82.8281 137.55 82.8281 137.55 82.8281 137.55C82.8281 137.55 82.8281 137.55 82.8281 137.551C82.8281 137.551 82.8281 137.551 82.8281 137.551C82.8281 137.551 82.8281 137.551 82.8281 137.551C82.8281 137.552 82.8281 137.552 82.8281 137.552C82.8281 137.552 82.8281 137.552 82.8281 137.552C82.8281 137.552 82.8281 137.553 82.8281 137.553C82.8281 137.553 82.8281 137.553 82.8281 137.553C82.8281 137.553 82.8281 137.554 82.8281 137.554C82.8281 137.554 82.8281 137.554 82.8281 137.554C82.8281 137.554 82.8281 137.554 82.8281 137.555C82.8281 137.555 82.8281 137.555 82.8281 137.555C82.8281 137.555 82.8281 137.555 82.8281 137.555C82.8281 137.556 82.8281 137.556 82.8281 137.556C82.8281 137.556 82.8281 137.556 82.8281 137.556C82.8281 137.556 82.8281 137.557 82.8281 137.557C82.8281 137.557 82.8281 137.557 82.8281 137.557C82.8281 137.557 82.8281 137.557 82.8281 137.558C82.8281 137.558 82.8281 137.558 82.8281 137.558C82.8281 137.558 82.8281 137.558 82.8281 137.558C82.8281 137.559 82.8281 137.559 82.8281 137.559C82.8281 137.559 82.8281 137.559 82.8281 137.559C82.8281 137.56 82.8281 137.56 82.8281 137.56C82.8281 137.56 82.8281 137.56 82.8281 137.56C82.8281 137.56 82.8281 137.561 82.8281 137.561C82.8281 137.561 82.8281 137.561 82.8281 137.561C82.8281 137.561 82.8281 137.561 82.8281 137.562C82.8281 137.562 82.8281 137.562 82.8281 137.562C82.8281 137.562 82.8281 137.562 82.8281 137.562C82.8281 137.563 82.8281 137.563 82.8281 137.563C82.8281 137.563 82.8281 137.563 82.8281 137.563C82.8281 137.564 82.8281 137.564 82.8281 137.564C82.8281 137.564 82.8281 137.564 82.8281 137.564C82.8281 137.564 82.8281 137.565 82.8281 137.565C82.8281 137.565 82.8281 137.565 82.8281 137.565C82.8281 137.565 82.8281 137.565 82.8281 137.566C82.8281 137.566 82.8281 137.566 82.8281 137.566C82.8281 137.566 82.8281 137.566 82.8281 137.566C82.8281 137.567 82.8281 137.567 82.8281 137.567C82.8281 137.567 82.8281 137.567 82.8281 137.567C82.8281 137.568 82.8281 137.568 82.8281 137.568C82.8281 137.568 82.8281 137.568 82.8281 137.568C82.8281 137.568 82.8281 137.569 82.8281 137.569C82.8281 137.569 82.8281 137.569 82.8281 137.569C82.8281 137.569 82.8281 137.569 82.8281 137.57C82.8281 137.57 82.8281 137.57 82.8281 137.57C82.8281 137.57 82.8281 137.57 82.8281 137.57C82.8281 137.571 82.8281 137.571 82.8281 137.571C82.8281 137.571 82.8281 137.571 82.8281 137.571C82.8281 137.572 82.8281 137.572 82.8281 137.572C82.8281 137.572 82.8281 137.572 82.8281 137.572C82.8281 137.572 82.8281 137.573 82.8281 137.573C82.8281 137.573 82.8281 137.573 82.8281 137.573C82.8281 137.573 82.8281 137.573 82.8281 137.574C82.8281 137.574 82.8281 137.574 82.8281 137.574C82.8281 137.574 82.8281 137.574 82.8281 137.575C82.8281 137.575 82.8281 137.575 82.8281 137.575C82.8281 137.575 82.8281 137.575 82.8281 137.575C82.8281 137.576 82.8281 137.576 82.8281 137.576C82.8281 137.576 82.8281 137.576 82.8281 137.576C82.8281 137.576 82.8281 137.577 82.8281 137.577C82.8281 137.577 82.8281 137.577 82.8281 137.577C82.8281 137.577 82.8281 137.578 82.8281 137.578C82.8281 137.578 82.8281 137.578 82.8281 137.578C82.8281 137.578 82.8281 137.578 82.8281 137.579C82.8281 137.579 82.8281 137.579 82.8281 137.579C82.8281 137.579 82.8281 137.579 82.8281 137.579C82.8281 137.58 82.8281 137.58 82.8281 137.58C82.8281 137.58 82.8281 137.58 82.8281 137.58C82.8281 137.581 82.8281 137.581 82.8281 137.581C82.8281 137.581 82.8281 137.581 82.8281 137.581C82.8281 137.581 82.8281 137.582 82.8281 137.582C82.8281 137.582 82.8281 137.582 82.8281 137.582C82.8281 137.582 82.8281 137.583 82.8281 137.583C82.8281 137.583 82.8281 137.583 82.8281 137.583C82.8281 137.583 82.8281 137.583 82.8281 137.584C82.8281 137.584 82.8281 137.584 82.8281 137.584C82.8281 137.584 82.8281 137.584 82.8281 137.584C82.8281 137.585 82.8281 137.585 82.8281 137.585C82.8281 137.585 82.8281 137.585 82.8281 137.585C82.8281 137.586 82.8281 137.586 82.8281 137.586C82.8281 137.586 82.8281 137.586 82.8281 137.586C82.8281 137.586 82.8281 137.587 82.8281 137.587C82.8281 137.587 82.8281 137.587 82.8281 137.587C82.8281 137.587 82.8281 137.588 82.8281 137.588C82.8281 137.588 82.8281 137.588 82.8281 137.588C82.8281 137.588 82.8281 137.588 82.8281 137.589C82.8281 137.589 82.8281 137.589 82.8281 137.589C82.8281 137.589 82.8281 137.589 82.8281 137.59C82.8281 137.59 82.8281 137.59 82.8281 137.59C82.8281 137.59 82.8281 137.59 82.8281 137.59C82.8281 137.591 82.8281 137.591 82.8281 137.591C82.8281 137.591 82.8281 137.591 82.8281 137.591C82.8281 137.592 82.8281 137.592 82.8281 137.592C82.8281 137.592 82.8281 137.592 82.8281 137.592C82.8281 137.592 82.8281 137.593 82.8281 137.593C82.8281 137.593 82.8281 137.593 82.8281 137.593C82.8281 137.593 82.8281 137.594 82.8281 137.594C82.8281 137.594 82.8281 137.594 82.8281 137.594C82.8281 137.594 82.8281 137.594 82.8281 137.595C82.8281 137.595 82.8281 137.595 82.8281 137.595C82.8281 137.595 82.8281 137.595 82.8281 137.596C82.8281 137.596 82.8281 137.596 82.8281 137.596C82.8281 137.596 82.8281 137.596 82.8281 137.596C82.8281 137.597 82.8281 137.597 82.8281 137.597C82.8281 137.597 82.8281 137.597 82.8281 137.597C82.8281 137.598 82.8281 137.598 82.8281 137.598C82.8281 137.598 82.8281 137.598 82.8281 137.598C82.8281 137.598 82.8281 137.599 82.8281 137.599C82.8281 137.599 82.8281 137.599 82.8281 137.599C82.8281 137.599 82.8281 137.6 82.8281 137.6C82.8281 137.6 82.8281 137.6 82.8281 137.6C82.8281 137.6 82.8281 137.6 82.8281 137.601C82.8281 137.601 82.8281 137.601 82.8281 137.601C82.8281 137.601 82.8281 137.601 82.8281 137.602C82.8281 137.602 82.8281 137.602 82.8281 137.602C82.8281 137.602 82.8281 137.602 82.8281 137.602C82.8281 137.603 82.8281 137.603 82.8281 137.603C82.8281 137.603 82.8281 137.603 82.8281 137.603C82.8281 137.604 82.8281 137.604 82.8281 137.604C82.8281 137.604 82.8281 137.604 82.8281 137.604C82.8281 137.605 82.8281 137.605 82.8281 137.605C82.8281 137.605 82.8281 137.605 82.8281 137.605C82.8281 137.605 82.8281 137.606 82.8281 137.606C82.8281 137.606 82.8281 137.606 82.8281 137.606C82.8281 137.606 82.8281 137.607 82.8281 137.607C82.8281 137.607 82.8281 137.607 82.8281 137.607C82.8281 137.607 82.8281 137.607 82.8281 137.608C82.8281 137.608 82.8281 137.608 82.8281 137.608C82.8281 137.608 82.8281 137.608 82.8281 137.609C82.8281 137.609 82.8281 137.609 82.8281 137.609C82.8281 137.609 82.8281 137.609 82.8281 137.61C82.8281 137.61 82.8281 137.61 82.8281 137.61C82.8281 137.61 82.8281 137.61 82.8281 137.61C82.8281 137.611 82.8281 137.611 82.8281 137.611C82.8281 137.611 82.8281 137.611 82.8281 137.611C82.8281 137.612 82.8281 137.612 82.8281 137.612C82.8281 137.612 82.8281 137.612 82.8281 137.612C82.8281 137.612 82.8281 137.613 82.8281 137.613C82.8281 137.613 82.8281 137.613 82.8281 137.613C82.8281 137.613 82.8281 137.614 82.8281 137.614C82.8281 137.614 82.8281 137.614 82.8281 137.614C82.8281 137.614 82.8281 137.615 82.8281 137.615C82.8281 137.615 82.8281 137.615 82.8281 137.615C82.8281 137.615 82.8281 137.615 82.8281 137.616C82.8281 137.616 82.8281 137.616 82.8281 137.616C82.8281 137.616 82.8281 137.616 82.8281 137.617C82.8281 137.617 82.8281 137.617 82.8281 137.617C82.8281 137.617 82.8281 137.617 82.8281 137.618C82.8281 137.618 82.8281 137.618 82.8281 137.618C82.8281 137.618 82.8281 137.618 82.8281 137.619C82.8281 137.619 82.8281 137.619 82.8281 137.619C82.8281 137.619 82.8281 137.619 82.8281 137.619C82.8281 137.62 82.8281 137.62 82.8281 137.62C82.8281 137.62 82.8281 137.62 82.8281 137.62C82.8281 137.621 82.8281 137.621 82.8281 137.621C82.8281 137.621 82.8281 137.621 82.8281 137.621C82.8281 137.622 82.8281 137.622 82.8281 137.622C82.8281 137.622 82.8281 137.622 82.8281 137.622C82.8281 137.622 82.8281 137.623 82.8281 137.623C82.8281 137.623 82.8281 137.623 82.8281 137.623C82.8281 137.623 82.8281 137.624 82.8281 137.624C82.8281 137.624 82.8281 137.624 82.8281 137.624C82.8281 137.624 82.8281 137.625 82.8281 137.625C82.8281 137.625 82.8281 137.625 82.8281 137.625C82.8281 137.625 82.8281 137.626 82.8281 137.626C82.8281 137.626 82.8281 137.626 82.8281 137.626C82.8281 137.626 82.8281 137.626 82.8281 137.627C82.8281 137.627 82.8281 137.627 82.8281 137.627C82.8281 137.627 82.8281 137.627 82.8281 137.628C82.8281 137.628 82.8281 137.628 82.8281 137.628C82.8281 137.628 82.8281 137.628 82.8281 137.629C82.8281 137.629 82.8281 137.629 82.8281 137.629C82.8281 137.629 82.8281 137.629 82.8281 137.63C82.8281 137.63 82.8281 137.63 82.8281 137.63C82.8281 137.63 82.8281 137.63 82.8281 137.63C82.8281 137.631 82.8281 137.631 82.8281 137.631C82.8281 137.631 82.8281 137.631 82.8281 137.631C82.8281 137.632 82.8281 137.632 82.8281 137.632C82.8281 137.632 82.8281 137.632 82.8281 137.632C82.8281 137.633 82.8281 137.633 82.8281 137.633C82.8281 137.633 82.8281 137.633 82.8281 137.633C82.8281 137.634 82.8281 137.634 82.8281 137.634C82.8281 137.634 82.8281 137.634 82.8281 137.634C82.8281 137.635 82.8281 137.635 82.8281 137.635C82.8281 137.635 82.8281 137.635 82.8281 137.635C82.8281 137.635 82.8281 137.636 82.8281 137.636C82.8281 137.636 82.8281 137.636 82.8281 137.636C82.8281 137.636 82.8281 137.637 82.8281 137.637C82.8281 137.637 82.8281 137.637 82.8281 137.637C82.8281 137.637 82.8281 137.638 82.8281 137.638C82.8281 137.638 82.8281 137.638 82.8281 137.638C82.8281 137.638 82.8281 137.639 82.8281 137.639C82.8281 137.639 82.8281 137.639 82.8281 137.639C82.8281 137.639 82.8281 137.64 82.8281 137.64C82.8281 137.64 82.8281 137.64 82.8281 137.64C82.8281 137.64 82.8281 137.64 82.8281 137.641C82.8281 137.641 82.8281 137.641 82.8281 137.641C82.8281 137.641 82.8281 137.641 82.8281 137.642C82.8281 137.642 82.8281 137.642 82.8281 137.642C82.8281 137.642 82.8281 137.642 82.8281 137.643C82.8281 137.643 82.8281 137.643 82.8281 137.643C82.8281 137.643 82.8281 137.643 82.8281 137.644C82.8281 137.644 82.8281 137.644 82.8281 137.644C82.8281 137.644 82.8281 137.644 82.8281 137.645C82.8281 137.645 82.8281 137.645 82.8281 137.645C82.8281 137.645 82.8281 137.645 82.8281 137.646C82.8281 137.646 82.8281 137.646 82.8281 137.646C82.8281 137.646 82.8281 137.646 82.8281 137.647C82.8281 137.647 82.8281 137.647 82.8281 137.647C82.8281 137.647 82.8281 137.647 82.8281 137.648C82.8281 137.648 82.8281 137.648 82.8281 137.648C82.8281 137.648 82.8281 137.648 82.8281 137.649C82.8281 137.649 82.8281 137.649 82.8281 137.649C82.8281 137.649 82.8281 137.649 82.8281 137.649C82.8281 137.65 82.8281 137.65 82.8281 137.65C82.8281 137.65 82.8281 137.65 82.8281 137.65C82.8281 137.651 82.8281 137.651 82.8281 137.651C82.8281 137.651 82.8281 137.651 82.8281 137.651C82.8281 137.652 82.8281 137.652 82.8281 137.652C82.8281 137.652 82.8281 137.652 82.8281 137.652C82.8281 137.653 82.8281 137.653 82.8281 137.653C82.8281 137.653 82.8281 137.653 82.8281 137.653C82.8281 137.654 82.8281 137.654 82.8281 137.654C82.8281 137.654 82.8281 137.654 82.8281 137.654C82.8281 137.655 82.8281 137.655 82.8281 137.655C82.8281 137.655 82.8281 137.655 82.8281 137.655C82.8281 137.656 82.8281 137.656 82.8281 137.656C82.8281 137.656 82.8281 137.656 82.8281 137.656C82.8281 137.657 82.8281 137.657 82.8281 137.657C82.8281 137.657 82.8281 137.657 82.8281 137.657C82.8281 137.658 82.8281 137.658 82.8281 137.658C82.8281 137.658 82.8281 137.658 82.8281 137.658C82.8281 137.659 82.8281 137.659 82.8281 137.659C82.8281 137.659 82.8281 137.659 82.8281 137.659C82.8281 137.66 82.8281 137.66 82.8281 137.66C82.8281 137.66 82.8281 137.66 82.8281 137.66C82.8281 137.661 82.8281 137.661 82.8281 137.661C82.8281 137.661 82.8281 137.661 82.8281 137.661C82.8281 137.662 82.8281 137.662 82.8281 137.662C82.8281 137.662 82.8281 137.662 82.8281 137.662C82.8281 137.663 82.8281 137.663 82.8281 137.663C82.8281 137.663 82.8281 137.663 82.8281 137.663C82.8281 137.664 82.8281 137.664 82.8281 137.664C82.8281 137.664 82.8281 137.664 82.8281 137.664C82.8281 137.665 82.8281 137.665 82.8281 137.665C82.8281 137.665 82.8281 137.665 82.8281 137.665C82.8281 137.666 82.8281 137.666 82.8281 137.666C82.8281 137.666 82.8281 137.666 82.8281 137.666C82.8281 137.667 82.8281 137.667 82.8281 137.667C82.8281 137.667 82.8281 137.667 82.8281 137.667C82.8281 137.668 82.8281 137.668 82.8281 137.668C82.8281 137.668 82.8281 137.668 82.8281 137.668C82.8281 137.669 82.8281 137.669 82.8281 137.669C82.8281 137.669 82.8281 137.669 82.8281 137.669C82.8281 137.67 82.8281 137.67 82.8281 137.67C82.8281 137.67 82.8281 137.67 82.8281 137.67C82.8281 137.671 82.8281 137.671 82.8281 137.671C82.8281 137.671 82.8281 137.671 82.8281 137.671C82.8281 137.672 82.8281 137.672 82.8281 137.672C82.8281 137.672 82.8281 137.672 82.8281 137.672C82.8281 137.673 82.8281 137.673 82.8281 137.673C82.8281 137.673 82.8281 137.673 82.8281 137.673C82.8281 137.674 82.8281 137.674 82.8281 137.674C82.8281 137.674 82.8281 137.674 82.8281 137.674C82.8281 137.675 82.8281 137.675 82.8281 137.675C82.8281 137.675 82.8281 137.675 82.8281 137.675C82.8281 137.676 82.8281 137.676 82.8281 137.676C82.8281 137.676 82.8281 137.676 82.8281 137.676C82.8281 137.677 82.8281 137.677 82.8281 137.677C82.8281 137.677 82.8281 137.677 82.8281 137.677C82.8281 137.678 82.8281 137.678 82.8281 137.678C82.8281 137.678 82.8281 137.678 82.8281 137.679C82.8281 137.679 82.8281 137.679 82.8281 137.679C82.8281 137.679 82.8281 137.679 82.8281 137.68C82.8281 137.68 82.8281 137.68 82.8281 137.68C82.8281 137.68 82.8281 137.68 82.8281 137.681C82.8281 137.681 82.8281 137.681 82.8281 137.681C82.8281 137.681 82.8281 137.681 82.8281 137.682C82.8281 137.682 82.8281 137.682 82.8281 137.682C82.8281 137.682 82.8281 137.682 82.8281 137.683C82.8281 137.683 82.8281 137.683 82.8281 137.683C82.8281 137.683 82.8281 137.683 82.8281 137.684C82.8281 137.684 82.8281 137.684 82.8281 137.684C82.8281 137.684 82.8281 137.684 82.8281 137.685C82.8281 137.685 82.8281 137.685 82.8281 137.685C82.8281 137.685 82.8281 137.685 82.8281 137.686C82.8281 137.686 82.8281 137.686 82.8281 137.686C82.8281 137.686 82.8281 137.687 82.8281 137.687C82.8281 137.687 82.8281 137.687 82.8281 137.687C82.8281 137.687 82.8281 137.688 82.8281 137.688C82.8281 137.688 82.8281 137.688 82.8281 137.688C82.8281 137.688 82.8281 137.689 82.8281 137.689C82.8281 137.689 82.8281 137.689 82.8281 137.689C82.8281 137.689 82.8281 137.69 82.8281 137.69C82.8281 137.69 82.8281 137.69 82.8281 137.69C82.8281 137.69 82.8281 137.691 82.8281 137.691C82.8281 137.691 82.8281 137.691 82.8281 137.691C82.8281 137.691 82.8281 137.692 82.8281 137.692C82.8281 137.692 82.8281 137.692 82.8281 137.692C82.8281 137.692 82.8281 137.693 82.8281 137.693C82.8281 137.693 82.8281 137.693 82.8281 137.693C82.8281 137.694 82.8281 137.694 82.8281 137.694C82.8281 137.694 82.8281 137.694 82.8281 137.694C82.8281 137.695 82.8281 137.695 82.8281 137.695C82.8281 137.695 82.8281 137.695 82.8281 137.695C82.8281 137.696 82.8281 137.696 82.8281 137.696C82.8281 137.696 82.8281 137.696 82.8281 137.696C82.8281 137.697 82.8281 137.697 82.8281 137.697C82.8281 137.697 82.8281 137.697 82.8281 137.697C82.8281 137.698 82.8281 137.698 82.8281 137.698C82.8281 137.698 82.8281 137.698 82.8281 137.699C82.8281 137.699 82.8281 137.699 82.8281 137.699C82.8281 137.699 82.8281 137.699 82.8281 137.7C82.8281 137.7 82.8281 137.7 82.8281 137.7C82.8281 137.7 82.8281 137.7 82.8281 137.701C82.8281 137.701 82.8281 137.701 82.8281 137.701C82.8281 137.701 82.8281 137.701 82.8281 137.702C82.8281 137.702 82.8281 137.702 82.8281 137.702C82.8281 137.702 82.8281 137.703 82.8281 137.703C82.8281 137.703 82.8281 137.703 82.8281 137.703C82.8281 137.703 82.8281 137.704 82.8281 137.704C82.8281 137.704 82.8281 137.704 82.8281 137.704C82.8281 137.704 82.8281 137.705 82.8281 137.705C82.8281 137.705 82.8281 137.705 82.8281 137.705C82.8281 137.705 82.8281 137.706 82.8281 137.706C82.8281 137.706 82.8281 137.706 82.8281 137.706C82.8281 137.707 82.8281 137.707 82.8281 137.707C82.8281 137.707 82.8281 137.707 82.8281 137.707C82.8281 137.708 82.8281 137.708 82.8281 137.708C82.8281 137.708 82.8281 137.708 82.8281 137.708C82.8281 137.709 82.8281 137.709 82.8281 137.709C82.8281 137.709 82.8281 137.709 82.8281 137.709C82.8281 137.71 82.8281 137.71 82.8281 137.71C82.8281 137.71 82.8281 137.71 82.8281 137.711C82.8281 137.711 82.8281 137.711 82.8281 137.711C82.8281 137.711 82.8281 137.711 82.8281 137.712C82.8281 137.712 82.8281 137.712 82.8281 137.712C82.8281 137.712 82.8281 137.712 82.8281 137.713C82.8281 137.713 82.8281 137.713 82.8281 137.713C82.8281 137.713 82.8281 137.714 82.8281 137.714C82.8281 137.714 82.8281 137.714 82.8281 137.714C82.8281 137.714 82.8281 137.715 82.8281 137.715C82.8281 137.715 82.8281 137.715 82.8281 137.715C82.8281 137.715 82.8281 137.716 82.8281 137.716C82.8281 137.716 82.8281 137.716 82.8281 137.716C82.8281 137.716 82.8281 137.717 82.8281 137.717C82.8281 137.717 82.8281 137.717 82.8281 137.717C82.8281 137.718 82.8281 137.718 82.8281 137.718C82.8281 137.718 82.8281 137.718 82.8281 137.718C82.8281 137.719 82.8281 137.719 82.8281 137.719C82.8281 137.719 82.8281 137.719 82.8281 137.719C82.8281 137.72 82.8281 137.72 82.8281 137.72C82.8281 137.72 82.8281 137.72 82.8281 137.721C82.8281 137.721 82.8281 137.721 82.8281 137.721C82.8281 137.721 82.8281 137.721 82.8281 137.722C82.8281 137.722 82.8281 137.722 82.8281 137.722C82.8281 137.722 82.8281 137.722 82.8281 137.723C82.8281 137.723 82.8281 137.723 82.8281 137.723C82.8281 137.723 82.8281 137.724 82.8281 137.724C82.8281 137.724 82.8281 137.724 82.8281 137.724C82.8281 137.724 82.8281 137.725 82.8281 137.725C82.8281 137.725 82.8281 137.725 82.8281 137.725C82.8281 137.726 82.8281 137.726 82.8281 137.726C82.8281 137.726 82.8281 137.726 82.8281 137.726C82.8281 137.727 82.8281 137.727 82.8281 137.727C82.8281 137.727 82.8281 137.727 82.8281 137.727C82.8281 137.728 82.8281 137.728 82.8281 137.728C82.8281 137.728 82.8281 137.728 82.8281 137.729C82.8281 137.729 82.8281 137.729 82.8281 137.729C82.8281 137.729 82.8281 137.729 82.8281 137.73C82.8281 137.73 82.8281 137.73 82.8281 137.73C82.8281 137.73 82.8281 137.73 82.8281 137.731C82.8281 137.731 82.8281 137.731 82.8281 137.731C82.8281 137.731 82.8281 137.732 82.8281 137.732C82.8281 137.732 82.8281 137.732 82.8281 137.732C82.8281 137.732 82.8281 137.733 82.8281 137.733C82.8281 137.733 82.8281 137.733 82.8281 137.733C82.8281 137.734 82.8281 137.734 82.8281 137.734C82.8281 137.734 82.8281 137.734 82.8281 137.734C82.8281 137.735 82.8281 137.735 82.8281 137.735C82.8281 137.735 82.8281 137.735 82.8281 137.735C82.8281 137.736 82.8281 137.736 82.8281 137.736C82.8281 137.736 82.8281 137.736 82.8281 137.737C82.8281 137.737 82.8281 137.737 82.8281 137.737C82.8281 137.737 82.8281 137.737 82.8281 137.738C82.8281 137.738 82.8281 137.738 82.8281 137.738C82.8281 137.738 82.8281 137.739 82.8281 137.739C82.8281 137.739 82.8281 137.739 82.8281 137.739C82.8281 137.739 82.8281 137.74 82.8281 137.74C82.8281 137.74 82.8281 137.74 82.8281 137.74C82.8281 137.741 82.8281 137.741 82.8281 137.741C82.8281 137.741 82.8281 137.741 82.8281 137.741C82.8281 137.742 82.8281 137.742 82.8281 137.742C82.8281 137.742 82.8281 137.742 82.8281 137.742C82.8281 137.743 82.8281 137.743 82.8281 137.743C82.8281 137.743 82.8281 137.743 82.8281 137.744C82.8281 137.744 82.8281 137.744 82.8281 137.744C82.8281 137.744 82.8281 137.744 82.8281 137.745C82.8281 137.745 82.8281 137.745 82.8281 137.745C82.8281 137.745 82.8281 137.746 82.8281 137.746C82.8281 137.746 82.8281 137.746 82.8281 137.746C82.8281 137.746 82.8281 137.747 82.8281 137.747C82.8281 137.747 82.8281 137.747 82.8281 137.747C82.8281 137.748 82.8281 137.748 82.8281 137.748C82.8281 137.748 82.8281 137.748 82.8281 137.748C82.8281 137.749 82.8281 137.749 82.8281 137.749C82.8281 137.749 82.8281 137.749 82.8281 137.75C82.8281 137.75 82.8281 137.75 82.8281 137.75C82.8281 137.75 82.8281 137.75 82.8281 137.751C82.8281 137.751 82.8281 137.751 82.8281 137.751C82.8281 137.751 82.8281 137.752 82.8281 137.752C82.8281 137.752 82.8281 137.752 82.8281 137.752C82.8281 137.752 82.8281 137.753 82.8281 137.753C82.8281 137.753 82.8281 137.753 82.8281 137.753C82.8281 137.754 82.8281 137.754 82.8281 137.754C82.8281 137.754 82.8281 137.754 82.8281 137.754C82.8281 137.755 82.8281 137.755 82.8281 137.755H83.8281C83.8281 137.755 83.8281 137.755 83.8281 137.754C83.8281 137.754 83.8281 137.754 83.8281 137.754C83.8281 137.754 83.8281 137.754 83.8281 137.753C83.8281 137.753 83.8281 137.753 83.8281 137.753C83.8281 137.753 83.8281 137.752 83.8281 137.752C83.8281 137.752 83.8281 137.752 83.8281 137.752C83.8281 137.752 83.8281 137.751 83.8281 137.751C83.8281 137.751 83.8281 137.751 83.8281 137.751C83.8281 137.75 83.8281 137.75 83.8281 137.75C83.8281 137.75 83.8281 137.75 83.8281 137.75C83.8281 137.749 83.8281 137.749 83.8281 137.749C83.8281 137.749 83.8281 137.749 83.8281 137.748C83.8281 137.748 83.8281 137.748 83.8281 137.748C83.8281 137.748 83.8281 137.748 83.8281 137.747C83.8281 137.747 83.8281 137.747 83.8281 137.747C83.8281 137.747 83.8281 137.746 83.8281 137.746C83.8281 137.746 83.8281 137.746 83.8281 137.746C83.8281 137.746 83.8281 137.745 83.8281 137.745C83.8281 137.745 83.8281 137.745 83.8281 137.745C83.8281 137.744 83.8281 137.744 83.8281 137.744C83.8281 137.744 83.8281 137.744 83.8281 137.744C83.8281 137.743 83.8281 137.743 83.8281 137.743C83.8281 137.743 83.8281 137.743 83.8281 137.742C83.8281 137.742 83.8281 137.742 83.8281 137.742C83.8281 137.742 83.8281 137.742 83.8281 137.741C83.8281 137.741 83.8281 137.741 83.8281 137.741C83.8281 137.741 83.8281 137.741 83.8281 137.74C83.8281 137.74 83.8281 137.74 83.8281 137.74C83.8281 137.74 83.8281 137.739 83.8281 137.739C83.8281 137.739 83.8281 137.739 83.8281 137.739C83.8281 137.739 83.8281 137.738 83.8281 137.738C83.8281 137.738 83.8281 137.738 83.8281 137.738C83.8281 137.737 83.8281 137.737 83.8281 137.737C83.8281 137.737 83.8281 137.737 83.8281 137.737C83.8281 137.736 83.8281 137.736 83.8281 137.736C83.8281 137.736 83.8281 137.736 83.8281 137.735C83.8281 137.735 83.8281 137.735 83.8281 137.735C83.8281 137.735 83.8281 137.735 83.8281 137.734C83.8281 137.734 83.8281 137.734 83.8281 137.734C83.8281 137.734 83.8281 137.734 83.8281 137.733C83.8281 137.733 83.8281 137.733 83.8281 137.733C83.8281 137.733 83.8281 137.732 83.8281 137.732C83.8281 137.732 83.8281 137.732 83.8281 137.732C83.8281 137.732 83.8281 137.731 83.8281 137.731C83.8281 137.731 83.8281 137.731 83.8281 137.731C83.8281 137.73 83.8281 137.73 83.8281 137.73C83.8281 137.73 83.8281 137.73 83.8281 137.73C83.8281 137.729 83.8281 137.729 83.8281 137.729C83.8281 137.729 83.8281 137.729 83.8281 137.729C83.8281 137.728 83.8281 137.728 83.8281 137.728C83.8281 137.728 83.8281 137.728 83.8281 137.727C83.8281 137.727 83.8281 137.727 83.8281 137.727C83.8281 137.727 83.8281 137.727 83.8281 137.726C83.8281 137.726 83.8281 137.726 83.8281 137.726C83.8281 137.726 83.8281 137.726 83.8281 137.725C83.8281 137.725 83.8281 137.725 83.8281 137.725C83.8281 137.725 83.8281 137.724 83.8281 137.724C83.8281 137.724 83.8281 137.724 83.8281 137.724C83.8281 137.724 83.8281 137.723 83.8281 137.723C83.8281 137.723 83.8281 137.723 83.8281 137.723C83.8281 137.722 83.8281 137.722 83.8281 137.722C83.8281 137.722 83.8281 137.722 83.8281 137.722C83.8281 137.721 83.8281 137.721 83.8281 137.721C83.8281 137.721 83.8281 137.721 83.8281 137.721C83.8281 137.72 83.8281 137.72 83.8281 137.72C83.8281 137.72 83.8281 137.72 83.8281 137.719C83.8281 137.719 83.8281 137.719 83.8281 137.719C83.8281 137.719 83.8281 137.719 83.8281 137.718C83.8281 137.718 83.8281 137.718 83.8281 137.718C83.8281 137.718 83.8281 137.718 83.8281 137.717C83.8281 137.717 83.8281 137.717 83.8281 137.717C83.8281 137.717 83.8281 137.716 83.8281 137.716C83.8281 137.716 83.8281 137.716 83.8281 137.716C83.8281 137.716 83.8281 137.715 83.8281 137.715C83.8281 137.715 83.8281 137.715 83.8281 137.715C83.8281 137.715 83.8281 137.714 83.8281 137.714C83.8281 137.714 83.8281 137.714 83.8281 137.714C83.8281 137.714 83.8281 137.713 83.8281 137.713C83.8281 137.713 83.8281 137.713 83.8281 137.713C83.8281 137.712 83.8281 137.712 83.8281 137.712C83.8281 137.712 83.8281 137.712 83.8281 137.712C83.8281 137.711 83.8281 137.711 83.8281 137.711C83.8281 137.711 83.8281 137.711 83.8281 137.711C83.8281 137.71 83.8281 137.71 83.8281 137.71C83.8281 137.71 83.8281 137.71 83.8281 137.709C83.8281 137.709 83.8281 137.709 83.8281 137.709C83.8281 137.709 83.8281 137.709 83.8281 137.708C83.8281 137.708 83.8281 137.708 83.8281 137.708C83.8281 137.708 83.8281 137.708 83.8281 137.707C83.8281 137.707 83.8281 137.707 83.8281 137.707C83.8281 137.707 83.8281 137.707 83.8281 137.706C83.8281 137.706 83.8281 137.706 83.8281 137.706C83.8281 137.706 83.8281 137.705 83.8281 137.705C83.8281 137.705 83.8281 137.705 83.8281 137.705C83.8281 137.705 83.8281 137.704 83.8281 137.704C83.8281 137.704 83.8281 137.704 83.8281 137.704C83.8281 137.704 83.8281 137.703 83.8281 137.703C83.8281 137.703 83.8281 137.703 83.8281 137.703C83.8281 137.703 83.8281 137.702 83.8281 137.702C83.8281 137.702 83.8281 137.702 83.8281 137.702C83.8281 137.701 83.8281 137.701 83.8281 137.701C83.8281 137.701 83.8281 137.701 83.8281 137.701C83.8281 137.7 83.8281 137.7 83.8281 137.7C83.8281 137.7 83.8281 137.7 83.8281 137.7C83.8281 137.699 83.8281 137.699 83.8281 137.699C83.8281 137.699 83.8281 137.699 83.8281 137.699C83.8281 137.698 83.8281 137.698 83.8281 137.698C83.8281 137.698 83.8281 137.698 83.8281 137.697C83.8281 137.697 83.8281 137.697 83.8281 137.697C83.8281 137.697 83.8281 137.697 83.8281 137.696C83.8281 137.696 83.8281 137.696 83.8281 137.696C83.8281 137.696 83.8281 137.696 83.8281 137.695C83.8281 137.695 83.8281 137.695 83.8281 137.695C83.8281 137.695 83.8281 137.695 83.8281 137.694C83.8281 137.694 83.8281 137.694 83.8281 137.694C83.8281 137.694 83.8281 137.694 83.8281 137.693C83.8281 137.693 83.8281 137.693 83.8281 137.693C83.8281 137.693 83.8281 137.692 83.8281 137.692C83.8281 137.692 83.8281 137.692 83.8281 137.692C83.8281 137.692 83.8281 137.691 83.8281 137.691C83.8281 137.691 83.8281 137.691 83.8281 137.691C83.8281 137.691 83.8281 137.69 83.8281 137.69C83.8281 137.69 83.8281 137.69 83.8281 137.69C83.8281 137.69 83.8281 137.689 83.8281 137.689C83.8281 137.689 83.8281 137.689 83.8281 137.689C83.8281 137.689 83.8281 137.688 83.8281 137.688C83.8281 137.688 83.8281 137.688 83.8281 137.688C83.8281 137.688 83.8281 137.687 83.8281 137.687C83.8281 137.687 83.8281 137.687 83.8281 137.687C83.8281 137.687 83.8281 137.686 83.8281 137.686C83.8281 137.686 83.8281 137.686 83.8281 137.686C83.8281 137.685 83.8281 137.685 83.8281 137.685C83.8281 137.685 83.8281 137.685 83.8281 137.685C83.8281 137.684 83.8281 137.684 83.8281 137.684C83.8281 137.684 83.8281 137.684 83.8281 137.684C83.8281 137.683 83.8281 137.683 83.8281 137.683C83.8281 137.683 83.8281 137.683 83.8281 137.683C83.8281 137.682 83.8281 137.682 83.8281 137.682C83.8281 137.682 83.8281 137.682 83.8281 137.682C83.8281 137.681 83.8281 137.681 83.8281 137.681C83.8281 137.681 83.8281 137.681 83.8281 137.681C83.8281 137.68 83.8281 137.68 83.8281 137.68C83.8281 137.68 83.8281 137.68 83.8281 137.68C83.8281 137.679 83.8281 137.679 83.8281 137.679C83.8281 137.679 83.8281 137.679 83.8281 137.679C83.8281 137.678 83.8281 137.678 83.8281 137.678C83.8281 137.678 83.8281 137.678 83.8281 137.677C83.8281 137.677 83.8281 137.677 83.8281 137.677C83.8281 137.677 83.8281 137.677 83.8281 137.676C83.8281 137.676 83.8281 137.676 83.8281 137.676C83.8281 137.676 83.8281 137.676 83.8281 137.675C83.8281 137.675 83.8281 137.675 83.8281 137.675C83.8281 137.675 83.8281 137.675 83.8281 137.674C83.8281 137.674 83.8281 137.674 83.8281 137.674C83.8281 137.674 83.8281 137.674 83.8281 137.673C83.8281 137.673 83.8281 137.673 83.8281 137.673C83.8281 137.673 83.8281 137.673 83.8281 137.672C83.8281 137.672 83.8281 137.672 83.8281 137.672C83.8281 137.672 83.8281 137.672 83.8281 137.671C83.8281 137.671 83.8281 137.671 83.8281 137.671C83.8281 137.671 83.8281 137.671 83.8281 137.67C83.8281 137.67 83.8281 137.67 83.8281 137.67C83.8281 137.67 83.8281 137.67 83.8281 137.669C83.8281 137.669 83.8281 137.669 83.8281 137.669C83.8281 137.669 83.8281 137.669 83.8281 137.668C83.8281 137.668 83.8281 137.668 83.8281 137.668C83.8281 137.668 83.8281 137.668 83.8281 137.667C83.8281 137.667 83.8281 137.667 83.8281 137.667C83.8281 137.667 83.8281 137.667 83.8281 137.666C83.8281 137.666 83.8281 137.666 83.8281 137.666C83.8281 137.666 83.8281 137.666 83.8281 137.665C83.8281 137.665 83.8281 137.665 83.8281 137.665C83.8281 137.665 83.8281 137.665 83.8281 137.664C83.8281 137.664 83.8281 137.664 83.8281 137.664C83.8281 137.664 83.8281 137.664 83.8281 137.663C83.8281 137.663 83.8281 137.663 83.8281 137.663C83.8281 137.663 83.8281 137.663 83.8281 137.662C83.8281 137.662 83.8281 137.662 83.8281 137.662C83.8281 137.662 83.8281 137.662 83.8281 137.661C83.8281 137.661 83.8281 137.661 83.8281 137.661C83.8281 137.661 83.8281 137.661 83.8281 137.66C83.8281 137.66 83.8281 137.66 83.8281 137.66C83.8281 137.66 83.8281 137.66 83.8281 137.659C83.8281 137.659 83.8281 137.659 83.8281 137.659C83.8281 137.659 83.8281 137.659 83.8281 137.658C83.8281 137.658 83.8281 137.658 83.8281 137.658C83.8281 137.658 83.8281 137.658 83.8281 137.657C83.8281 137.657 83.8281 137.657 83.8281 137.657C83.8281 137.657 83.8281 137.657 83.8281 137.656C83.8281 137.656 83.8281 137.656 83.8281 137.656C83.8281 137.656 83.8281 137.656 83.8281 137.655C83.8281 137.655 83.8281 137.655 83.8281 137.655C83.8281 137.655 83.8281 137.655 83.8281 137.654C83.8281 137.654 83.8281 137.654 83.8281 137.654C83.8281 137.654 83.8281 137.654 83.8281 137.653C83.8281 137.653 83.8281 137.653 83.8281 137.653C83.8281 137.653 83.8281 137.653 83.8281 137.652C83.8281 137.652 83.8281 137.652 83.8281 137.652C83.8281 137.652 83.8281 137.652 83.8281 137.651C83.8281 137.651 83.8281 137.651 83.8281 137.651C83.8281 137.651 83.8281 137.651 83.8281 137.65C83.8281 137.65 83.8281 137.65 83.8281 137.65C83.8281 137.65 83.8281 137.65 83.8281 137.649C83.8281 137.649 83.8281 137.649 83.8281 137.649C83.8281 137.649 83.8281 137.649 83.8281 137.649C83.8281 137.648 83.8281 137.648 83.8281 137.648C83.8281 137.648 83.8281 137.648 83.8281 137.648C83.8281 137.647 83.8281 137.647 83.8281 137.647C83.8281 137.647 83.8281 137.647 83.8281 137.647C83.8281 137.646 83.8281 137.646 83.8281 137.646C83.8281 137.646 83.8281 137.646 83.8281 137.646C83.8281 137.645 83.8281 137.645 83.8281 137.645C83.8281 137.645 83.8281 137.645 83.8281 137.645C83.8281 137.644 83.8281 137.644 83.8281 137.644C83.8281 137.644 83.8281 137.644 83.8281 137.644C83.8281 137.643 83.8281 137.643 83.8281 137.643C83.8281 137.643 83.8281 137.643 83.8281 137.643C83.8281 137.642 83.8281 137.642 83.8281 137.642C83.8281 137.642 83.8281 137.642 83.8281 137.642C83.8281 137.641 83.8281 137.641 83.8281 137.641C83.8281 137.641 83.8281 137.641 83.8281 137.641C83.8281 137.64 83.8281 137.64 83.8281 137.64C83.8281 137.64 83.8281 137.64 83.8281 137.64C83.8281 137.64 83.8281 137.639 83.8281 137.639C83.8281 137.639 83.8281 137.639 83.8281 137.639C83.8281 137.639 83.8281 137.638 83.8281 137.638C83.8281 137.638 83.8281 137.638 83.8281 137.638C83.8281 137.638 83.8281 137.637 83.8281 137.637C83.8281 137.637 83.8281 137.637 83.8281 137.637C83.8281 137.637 83.8281 137.636 83.8281 137.636C83.8281 137.636 83.8281 137.636 83.8281 137.636C83.8281 137.636 83.8281 137.635 83.8281 137.635C83.8281 137.635 83.8281 137.635 83.8281 137.635C83.8281 137.635 83.8281 137.635 83.8281 137.634C83.8281 137.634 83.8281 137.634 83.8281 137.634C83.8281 137.634 83.8281 137.634 83.8281 137.633C83.8281 137.633 83.8281 137.633 83.8281 137.633C83.8281 137.633 83.8281 137.633 83.8281 137.632C83.8281 137.632 83.8281 137.632 83.8281 137.632C83.8281 137.632 83.8281 137.632 83.8281 137.631C83.8281 137.631 83.8281 137.631 83.8281 137.631C83.8281 137.631 83.8281 137.631 83.8281 137.63C83.8281 137.63 83.8281 137.63 83.8281 137.63C83.8281 137.63 83.8281 137.63 83.8281 137.63C83.8281 137.629 83.8281 137.629 83.8281 137.629C83.8281 137.629 83.8281 137.629 83.8281 137.629C83.8281 137.628 83.8281 137.628 83.8281 137.628C83.8281 137.628 83.8281 137.628 83.8281 137.628C83.8281 137.627 83.8281 137.627 83.8281 137.627C83.8281 137.627 83.8281 137.627 83.8281 137.627C83.8281 137.626 83.8281 137.626 83.8281 137.626C83.8281 137.626 83.8281 137.626 83.8281 137.626C83.8281 137.626 83.8281 137.625 83.8281 137.625C83.8281 137.625 83.8281 137.625 83.8281 137.625C83.8281 137.625 83.8281 137.624 83.8281 137.624C83.8281 137.624 83.8281 137.624 83.8281 137.624C83.8281 137.624 83.8281 137.623 83.8281 137.623C83.8281 137.623 83.8281 137.623 83.8281 137.623C83.8281 137.623 83.8281 137.622 83.8281 137.622C83.8281 137.622 83.8281 137.622 83.8281 137.622C83.8281 137.622 83.8281 137.622 83.8281 137.621C83.8281 137.621 83.8281 137.621 83.8281 137.621C83.8281 137.621 83.8281 137.621 83.8281 137.62C83.8281 137.62 83.8281 137.62 83.8281 137.62C83.8281 137.62 83.8281 137.62 83.8281 137.619C83.8281 137.619 83.8281 137.619 83.8281 137.619C83.8281 137.619 83.8281 137.619 83.8281 137.619C83.8281 137.618 83.8281 137.618 83.8281 137.618C83.8281 137.618 83.8281 137.618 83.8281 137.618C83.8281 137.617 83.8281 137.617 83.8281 137.617C83.8281 137.617 83.8281 137.617 83.8281 137.617C83.8281 137.616 83.8281 137.616 83.8281 137.616C83.8281 137.616 83.8281 137.616 83.8281 137.616C83.8281 137.615 83.8281 137.615 83.8281 137.615C83.8281 137.615 83.8281 137.615 83.8281 137.615C83.8281 137.615 83.8281 137.614 83.8281 137.614C83.8281 137.614 83.8281 137.614 83.8281 137.614C83.8281 137.614 83.8281 137.613 83.8281 137.613C83.8281 137.613 83.8281 137.613 83.8281 137.613C83.8281 137.613 83.8281 137.612 83.8281 137.612C83.8281 137.612 83.8281 137.612 83.8281 137.612C83.8281 137.612 83.8281 137.612 83.8281 137.611C83.8281 137.611 83.8281 137.611 83.8281 137.611C83.8281 137.611 83.8281 137.611 83.8281 137.61C83.8281 137.61 83.8281 137.61 83.8281 137.61C83.8281 137.61 83.8281 137.61 83.8281 137.61C83.8281 137.609 83.8281 137.609 83.8281 137.609C83.8281 137.609 83.8281 137.609 83.8281 137.609C83.8281 137.608 83.8281 137.608 83.8281 137.608C83.8281 137.608 83.8281 137.608 83.8281 137.608C83.8281 137.607 83.8281 137.607 83.8281 137.607C83.8281 137.607 83.8281 137.607 83.8281 137.607C83.8281 137.607 83.8281 137.606 83.8281 137.606C83.8281 137.606 83.8281 137.606 83.8281 137.606C83.8281 137.606 83.8281 137.605 83.8281 137.605C83.8281 137.605 83.8281 137.605 83.8281 137.605C83.8281 137.605 83.8281 137.605 83.8281 137.604C83.8281 137.604 83.8281 137.604 83.8281 137.604C83.8281 137.604 83.8281 137.604 83.8281 137.603C83.8281 137.603 83.8281 137.603 83.8281 137.603C83.8281 137.603 83.8281 137.603 83.8281 137.602C83.8281 137.602 83.8281 137.602 83.8281 137.602C83.8281 137.602 83.8281 137.602 83.8281 137.602C83.8281 137.601 83.8281 137.601 83.8281 137.601C83.8281 137.601 83.8281 137.601 83.8281 137.601C83.8281 137.6 83.8281 137.6 83.8281 137.6C83.8281 137.6 83.8281 137.6 83.8281 137.6C83.8281 137.6 83.8281 137.599 83.8281 137.599C83.8281 137.599 83.8281 137.599 83.8281 137.599C83.8281 137.599 83.8281 137.598 83.8281 137.598C83.8281 137.598 83.8281 137.598 83.8281 137.598C83.8281 137.598 83.8281 137.598 83.8281 137.597C83.8281 137.597 83.8281 137.597 83.8281 137.597C83.8281 137.597 83.8281 137.597 83.8281 137.596C83.8281 137.596 83.8281 137.596 83.8281 137.596C83.8281 137.596 83.8281 137.596 83.8281 137.596C83.8281 137.595 83.8281 137.595 83.8281 137.595C83.8281 137.595 83.8281 137.595 83.8281 137.595C83.8281 137.594 83.8281 137.594 83.8281 137.594C83.8281 137.594 83.8281 137.594 83.8281 137.594C83.8281 137.594 83.8281 137.593 83.8281 137.593C83.8281 137.593 83.8281 137.593 83.8281 137.593C83.8281 137.593 83.8281 137.592 83.8281 137.592C83.8281 137.592 83.8281 137.592 83.8281 137.592C83.8281 137.592 83.8281 137.592 83.8281 137.591C83.8281 137.591 83.8281 137.591 83.8281 137.591C83.8281 137.591 83.8281 137.591 83.8281 137.59C83.8281 137.59 83.8281 137.59 83.8281 137.59C83.8281 137.59 83.8281 137.59 83.8281 137.59C83.8281 137.589 83.8281 137.589 83.8281 137.589C83.8281 137.589 83.8281 137.589 83.8281 137.589C83.8281 137.588 83.8281 137.588 83.8281 137.588C83.8281 137.588 83.8281 137.588 83.8281 137.588C83.8281 137.588 83.8281 137.587 83.8281 137.587C83.8281 137.587 83.8281 137.587 83.8281 137.587C83.8281 137.587 83.8281 137.586 83.8281 137.586C83.8281 137.586 83.8281 137.586 83.8281 137.586C83.8281 137.586 83.8281 137.586 83.8281 137.585C83.8281 137.585 83.8281 137.585 83.8281 137.585C83.8281 137.585 83.8281 137.585 83.8281 137.584C83.8281 137.584 83.8281 137.584 83.8281 137.584C83.8281 137.584 83.8281 137.584 83.8281 137.584C83.8281 137.583 83.8281 137.583 83.8281 137.583C83.8281 137.583 83.8281 137.583 83.8281 137.583C83.8281 137.583 83.8281 137.582 83.8281 137.582C83.8281 137.582 83.8281 137.582 83.8281 137.582C83.8281 137.582 83.8281 137.581 83.8281 137.581C83.8281 137.581 83.8281 137.581 83.8281 137.581C83.8281 137.581 83.8281 137.581 83.8281 137.58C83.8281 137.58 83.8281 137.58 83.8281 137.58C83.8281 137.58 83.8281 137.58 83.8281 137.579C83.8281 137.579 83.8281 137.579 83.8281 137.579C83.8281 137.579 83.8281 137.579 83.8281 137.579C83.8281 137.578 83.8281 137.578 83.8281 137.578C83.8281 137.578 83.8281 137.578 83.8281 137.578C83.8281 137.578 83.8281 137.577 83.8281 137.577C83.8281 137.577 83.8281 137.577 83.8281 137.577C83.8281 137.577 83.8281 137.576 83.8281 137.576C83.8281 137.576 83.8281 137.576 83.8281 137.576C83.8281 137.576 83.8281 137.576 83.8281 137.575C83.8281 137.575 83.8281 137.575 83.8281 137.575C83.8281 137.575 83.8281 137.575 83.8281 137.575C83.8281 137.574 83.8281 137.574 83.8281 137.574C83.8281 137.574 83.8281 137.574 83.8281 137.574C83.8281 137.573 83.8281 137.573 83.8281 137.573C83.8281 137.573 83.8281 137.573 83.8281 137.573C83.8281 137.573 83.8281 137.572 83.8281 137.572C83.8281 137.572 83.8281 137.572 83.8281 137.572C83.8281 137.572 83.8281 137.572 83.8281 137.571C83.8281 137.571 83.8281 137.571 83.8281 137.571C83.8281 137.571 83.8281 137.571 83.8281 137.57C83.8281 137.57 83.8281 137.57 83.8281 137.57C83.8281 137.57 83.8281 137.57 83.8281 137.57C83.8281 137.569 83.8281 137.569 83.8281 137.569C83.8281 137.569 83.8281 137.569 83.8281 137.569C83.8281 137.569 83.8281 137.568 83.8281 137.568C83.8281 137.568 83.8281 137.568 83.8281 137.568C83.8281 137.568 83.8281 137.568 83.8281 137.567C83.8281 137.567 83.8281 137.567 83.8281 137.567C83.8281 137.567 83.8281 137.567 83.8281 137.566C83.8281 137.566 83.8281 137.566 83.8281 137.566C83.8281 137.566 83.8281 137.566 83.8281 137.566C83.8281 137.565 83.8281 137.565 83.8281 137.565C83.8281 137.565 83.8281 137.565 83.8281 137.565C83.8281 137.565 83.8281 137.564 83.8281 137.564C83.8281 137.564 83.8281 137.564 83.8281 137.564C83.8281 137.564 83.8281 137.564 83.8281 137.563C83.8281 137.563 83.8281 137.563 83.8281 137.563C83.8281 137.563 83.8281 137.563 83.8281 137.562C83.8281 137.562 83.8281 137.562 83.8281 137.562C83.8281 137.562 83.8281 137.562 83.8281 137.562C83.8281 137.561 83.8281 137.561 83.8281 137.561C83.8281 137.561 83.8281 137.561 83.8281 137.561C83.8281 137.561 83.8281 137.56 83.8281 137.56C83.8281 137.56 83.8281 137.56 83.8281 137.56C83.8281 137.56 83.8281 137.56 83.8281 137.559C83.8281 137.559 83.8281 137.559 83.8281 137.559C83.8281 137.559 83.8281 137.559 83.8281 137.558C83.8281 137.558 83.8281 137.558 83.8281 137.558C83.8281 137.558 83.8281 137.558 83.8281 137.558C83.8281 137.557 83.8281 137.557 83.8281 137.557C83.8281 137.557 83.8281 137.557 83.8281 137.557C83.8281 137.557 83.8281 137.556 83.8281 137.556C83.8281 137.556 83.8281 137.556 83.8281 137.556C83.8281 137.556 83.8281 137.556 83.8281 137.555C83.8281 137.555 83.8281 137.555 83.8281 137.555C83.8281 137.555 83.8281 137.555 83.8281 137.555C83.8281 137.554 83.8281 137.554 83.8281 137.554C83.8281 137.554 83.8281 137.554 83.8281 137.554C83.8281 137.554 83.8281 137.553 83.8281 137.553C83.8281 137.553 83.8281 137.553 83.8281 137.553C83.8281 137.553 83.8281 137.552 83.8281 137.552C83.8281 137.552 83.8281 137.552 83.8281 137.552C83.8281 137.552 83.8281 137.552 83.8281 137.551C83.8281 137.551 83.8281 137.551 83.8281 137.551C83.8281 137.551 83.8281 137.551 83.8281 137.551C83.8281 137.55 83.8281 137.55 83.8281 137.55C83.8281 137.55 83.8281 137.55 83.8281 137.55C83.8281 137.55 83.8281 137.549 83.8281 137.549C83.8281 137.549 83.8281 137.549 83.8281 137.549C83.8281 137.549 83.8281 137.549 83.8281 137.548C83.8281 137.548 83.8281 137.548 83.8281 137.548C83.8281 137.548 83.8281 137.548 83.8281 137.548C83.8281 137.547 83.8281 137.547 83.8281 137.547C83.8281 137.547 83.8281 137.547 83.8281 137.547C83.8281 137.547 83.8281 137.546 83.8281 137.546C83.8281 137.546 83.8281 137.546 83.8281 137.546C83.8281 137.546 83.8281 137.546 83.8281 137.545C83.8281 137.545 83.8281 137.545 83.8281 137.545C83.8281 137.545 83.8281 137.545 83.8281 137.545C83.8281 137.544 83.8281 137.544 83.8281 137.544C83.8281 137.544 83.8281 137.544 83.8281 137.544C83.8281 137.544 83.8281 137.543 83.8281 137.543C83.8281 137.543 83.8281 137.543 83.8281 137.543C83.8281 137.543 83.8281 137.543 83.8281 137.542C83.8281 137.542 83.8281 137.542 83.8281 137.542C83.8281 137.542 83.8281 137.542 83.8281 137.542C83.8281 137.541 83.8281 137.541 83.8281 137.541C83.8281 137.541 83.8281 137.541 83.8281 137.541C83.8281 137.541 83.8281 137.54 83.8281 137.54C83.8281 137.54 83.8281 137.54 83.8281 137.54C83.8281 137.54 83.8281 137.54 83.8281 137.539C83.8281 137.539 83.8281 137.539 83.8281 137.539C83.8281 137.539 83.8281 137.539 83.8281 137.539C83.8281 137.538 83.8281 137.538 83.8281 137.538C83.8281 137.538 83.8281 137.538 83.8281 137.538C83.8281 137.538 83.8281 137.537 83.8281 137.537C83.8281 137.537 83.8281 137.537 83.8281 137.537C83.8281 137.537 83.8281 137.537 83.8281 137.536C83.8281 137.536 83.8281 137.536 83.8281 137.536C83.8281 137.536 83.8281 137.536 83.8281 137.536C83.8281 137.535 83.8281 137.535 83.8281 137.535C83.8281 137.535 83.8281 137.535 83.8281 137.535C83.8281 137.535 83.8281 137.534 83.8281 137.534C83.8281 137.534 83.8281 137.534 83.8281 137.534C83.8281 137.534 83.8281 137.534 83.8281 137.533C83.8281 137.533 83.8281 137.533 83.8281 137.533C83.8281 137.533 83.8281 137.533 83.8281 137.533C83.8281 137.532 83.8281 137.532 83.8281 137.532C83.8281 137.532 83.8281 137.532 83.8281 137.532C83.8281 137.532 83.8281 137.531 83.8281 137.531C83.8281 137.531 83.8281 137.531 83.8281 137.531C83.8281 137.531 83.8281 137.531 83.8281 137.53C83.8281 137.53 83.8281 137.53 83.8281 137.53C83.8281 137.53 83.8281 137.53 83.8281 137.53C83.8281 137.529 83.8281 137.529 83.8281 137.529C83.8281 137.529 83.8281 137.529 83.8281 137.529C83.8281 137.529 83.8281 137.528 83.8281 137.528C83.8281 137.528 83.8281 137.528 83.8281 137.528C83.8281 137.528 83.8281 137.528 83.8281 137.527C83.8281 137.527 83.8281 137.527 83.8281 137.527C83.8281 137.527 83.8281 137.527 83.8281 137.527C83.8281 137.526 83.8281 137.526 83.8281 137.526C83.8281 137.526 83.8281 137.526 83.8281 137.526C83.8281 137.526 83.8281 137.525 83.8281 137.525C83.8281 137.525 83.8281 137.525 83.8281 137.525C83.8281 137.525 83.8281 137.525 83.8281 137.525C83.8281 137.524 83.8281 137.524 83.8281 137.524C83.8281 137.524 83.8281 137.524 83.8281 137.524C83.8281 137.524 83.8281 137.523 83.8281 137.523C83.8281 137.523 83.8281 137.523 83.8281 137.523C83.8281 137.523 83.8281 137.523 83.8281 137.522C83.8281 137.522 83.8281 137.522 83.8281 137.522C83.8281 137.522 83.8281 137.522 83.8281 137.522C83.8281 137.521 83.8281 137.521 83.8281 137.521C83.8281 137.521 83.8281 137.521 83.8281 137.521C83.8281 137.521 83.8281 137.52 83.8281 137.52C83.8281 137.52 83.8281 137.52 83.8281 137.52C83.8281 137.52 83.8281 137.52 83.8281 137.52C83.8281 137.519 83.8281 137.519 83.8281 137.519C83.8281 137.519 83.8281 137.519 83.8281 137.519C83.8281 137.519 83.8281 137.518 83.8281 137.518C83.8281 137.518 83.8281 137.518 83.8281 137.518C83.8281 137.518 83.8281 137.518 83.8281 137.517C83.8281 137.517 83.8281 137.517 83.8281 137.517C83.8281 137.517 83.8281 137.517 83.8281 137.517C83.8281 137.516 83.8281 137.516 83.8281 137.516C83.8281 137.516 83.8281 137.516 83.8281 137.516C83.8281 137.516 83.8281 137.515 83.8281 137.515C83.8281 137.515 83.8281 137.515 83.8281 137.515C83.8281 137.515 83.8281 137.515 83.8281 137.515C83.8281 137.514 83.8281 137.514 83.8281 137.514C83.8281 137.514 83.8281 137.514 83.8281 137.514C83.8281 137.514 83.8281 137.513 83.8281 137.513C83.8281 137.513 83.8281 137.513 83.8281 137.513C83.8281 137.513 83.8281 137.513 83.8281 137.512C83.8281 137.512 83.8281 137.512 83.8281 137.512C83.8281 137.512 83.8281 137.512 83.8281 137.512C83.8281 137.512 83.8281 137.511 83.8281 137.511C83.8281 137.511 83.8281 137.511 83.8281 137.511C83.8281 137.511 83.8281 137.511 83.8281 137.51C83.8281 137.51 83.8281 137.51 83.8281 137.51H82.8281ZM82.8538 137.913C82.861 137.935 82.8631 137.952 82.8631 137.965H83.8631C83.8631 137.838 83.8419 137.715 83.8025 137.597L82.8538 137.913ZM83.3631 137.465H78.2531V138.465H83.3631V137.465ZM78.7531 137.965C78.7531 136.758 78.637 135.793 78.3674 135.119L77.4389 135.491C77.6359 135.983 77.7531 136.792 77.7531 137.965H78.7531ZM78.3674 135.119C78.0267 134.268 77.214 133.93 76.2231 133.93V134.93C77.0055 134.93 77.3129 135.176 77.4389 135.491L78.3674 135.119ZM76.2231 133.93C75.5502 133.93 74.965 134.145 74.5276 134.614L75.2587 135.296C75.4746 135.065 75.7761 134.93 76.2231 134.93V133.93ZM74.5153 134.628C74.1196 135.084 73.8792 135.792 73.7349 136.658L74.7213 136.822C74.857 136.008 75.06 135.526 75.271 135.282L74.5153 134.628ZM73.7332 136.669C73.6116 137.52 73.5531 138.679 73.5531 140.135H74.5531C74.5531 138.697 74.6114 137.593 74.7231 136.811L73.7332 136.669ZM73.5531 140.135V143.04H74.5531V140.135H73.5531ZM74.4836 143.294C74.7261 142.884 75.1059 142.551 75.6562 142.307L75.2501 141.393C74.5404 141.708 73.9868 142.169 73.6227 142.786L74.4836 143.294ZM75.6501 142.31C76.236 142.058 76.9188 141.917 77.707 141.895L77.6792 140.895C76.7875 140.92 75.977 141.082 75.2562 141.39L75.6501 142.31ZM77.7087 141.895C79.1191 141.851 80.1793 142.171 80.9471 142.797L81.5792 142.023C80.5736 141.202 79.2538 140.846 77.6775 140.895L77.7087 141.895ZM80.9583 142.806C81.7753 143.435 82.3755 144.323 82.7462 145.5L83.7001 145.2C83.2774 143.857 82.571 142.785 81.568 142.014L80.9583 142.806ZM82.747 145.503C83.125 146.681 83.3181 148.028 83.3181 149.55H84.3181C84.3181 147.945 84.1146 146.492 83.6992 145.197L82.747 145.503ZM83.3181 149.55C83.3181 151.424 83.0895 153.075 82.6409 154.511L83.5954 154.809C84.08 153.258 84.3181 151.503 84.3181 149.55H83.3181ZM82.6409 154.511C82.2017 155.916 81.4644 156.99 80.4381 157.76L81.0381 158.56C82.2518 157.65 83.1012 156.39 83.5954 154.809L82.6409 154.511ZM80.4395 157.759C79.4576 158.49 78.0708 158.885 76.2231 158.885V159.885C78.2022 159.885 79.8253 159.463 81.0368 158.561L80.4395 157.759ZM76.2931 155.86C77.0017 155.86 77.6034 155.61 77.9966 155.053L77.1796 154.477C77.0129 154.713 76.7512 154.86 76.2931 154.86V155.86ZM77.9853 155.069C78.3611 154.577 78.5793 153.922 78.679 153.149L77.6872 153.021C77.6003 153.695 77.4218 154.159 77.1909 154.461L77.9853 155.069ZM78.6767 153.165C78.799 152.407 78.8581 151.504 78.8581 150.46H77.8581C77.8581 151.47 77.8006 152.316 77.6895 153.005L78.6767 153.165ZM78.8581 150.46C78.8581 149.469 78.8228 148.601 78.7508 147.857L77.7555 147.953C77.8235 148.656 77.8581 149.491 77.8581 150.46H78.8581ZM78.7522 147.874C78.7021 147.073 78.5115 146.386 78.1335 145.862L77.3228 146.448C77.5514 146.764 77.7108 147.244 77.7541 147.936L78.7522 147.874ZM78.1335 145.862C77.7052 145.269 77.0224 145.025 76.2231 145.025V146.025C76.8238 146.025 77.1443 146.201 77.3228 146.448L78.1335 145.862ZM76.2231 145.025C75.8224 145.025 75.4361 145.111 75.0686 145.281L75.4877 146.189C75.7268 146.079 75.9705 146.025 76.2231 146.025V145.025ZM75.0858 145.273C74.7469 145.415 74.4468 145.614 74.1896 145.871L74.8967 146.579C75.0595 146.416 75.2494 146.289 75.4704 146.197L75.0858 145.273ZM74.2109 145.851C73.9658 146.069 73.7643 146.31 73.616 146.577L74.4902 147.063C74.5753 146.91 74.7004 146.754 74.8753 146.599L74.2109 145.851ZM73.5531 146.82V151.335H74.5531V146.82H73.5531ZM73.5531 151.335C73.5531 152.063 73.6138 152.758 73.7365 153.421L74.7198 153.239C74.6091 152.642 74.5531 152.007 74.5531 151.335H73.5531ZM73.7409 153.442C73.8948 154.109 74.1588 154.68 74.5518 155.129L75.3044 154.471C75.0441 154.173 74.8414 153.764 74.7153 153.218L73.7409 153.442ZM74.5518 155.129C74.9904 155.63 75.5935 155.86 76.2931 155.86V154.86C75.8261 154.86 75.5192 154.716 75.3044 154.471L74.5518 155.129Z" fill="#FFF9F9"/>
</g>
<g id="ABF" opacity="0.8">
<path d="M100.018 159.49C98.3147 159.49 96.903 159.14 95.783 158.44C94.663 157.74 93.823 156.783 93.263 155.57C92.703 154.333 92.423 152.91 92.423 151.3V138.595C92.423 136.938 92.6914 135.492 93.228 134.255C93.7647 132.995 94.593 132.015 95.713 131.315C96.833 130.615 98.268 130.265 100.018 130.265C101.745 130.265 103.156 130.615 104.253 131.315C105.373 132.015 106.201 132.995 106.738 134.255C107.275 135.492 107.543 136.938 107.543 138.595V151.3C107.543 152.91 107.263 154.333 106.703 155.57C106.143 156.783 105.303 157.74 104.183 158.44C103.063 159.14 101.675 159.49 100.018 159.49ZM100.018 154.73C100.648 154.73 101.103 154.532 101.383 154.135C101.663 153.738 101.85 153.272 101.943 152.735C102.036 152.175 102.083 151.662 102.083 151.195V138.7C102.083 138.187 102.036 137.65 101.943 137.09C101.873 136.53 101.698 136.052 101.418 135.655C101.138 135.235 100.671 135.025 100.018 135.025C99.3647 135.025 98.8864 135.235 98.583 135.655C98.303 136.052 98.1164 136.53 98.023 137.09C97.953 137.65 97.918 138.187 97.918 138.7V151.195C97.918 151.662 97.9647 152.175 98.058 152.735C98.1514 153.272 98.3497 153.738 98.653 154.135C98.9564 154.532 99.4114 154.73 100.018 154.73Z" fill="black"/>
<path d="M95.783 158.44L95.518 158.864L95.783 158.44ZM93.263 155.57L92.8076 155.776L92.8091 155.78L93.263 155.57ZM93.228 134.255L93.6867 134.454L93.6881 134.451L93.228 134.255ZM95.713 131.315L95.978 131.739L95.713 131.315ZM104.253 131.315L103.984 131.736L103.988 131.739L104.253 131.315ZM106.738 134.255L106.278 134.451L106.279 134.454L106.738 134.255ZM106.703 155.57L107.157 155.78L107.159 155.776L106.703 155.57ZM104.183 158.44L104.448 158.864L104.183 158.44ZM101.383 154.135L100.975 153.847L101.383 154.135ZM101.943 152.735L102.436 152.821L102.436 152.817L101.943 152.735ZM101.943 137.09L101.447 137.152L101.448 137.162L101.45 137.172L101.943 137.09ZM101.418 135.655L101.002 135.932L101.01 135.943L101.418 135.655ZM98.583 135.655L98.1777 135.362L98.1746 135.367L98.583 135.655ZM98.023 137.09L97.5299 137.008L97.5282 137.018L97.5269 137.028L98.023 137.09ZM98.058 152.735L97.5648 152.817L97.5654 152.821L98.058 152.735ZM98.653 154.135L99.0502 153.831L98.653 154.135ZM100.018 158.99C98.3817 158.99 97.0686 158.654 96.048 158.016L95.518 158.864C96.7375 159.626 98.2477 159.99 100.018 159.99V158.99ZM96.048 158.016C95.0116 157.368 94.2368 156.487 93.717 155.36L92.8091 155.78C93.4093 157.08 94.3145 158.112 95.518 158.864L96.048 158.016ZM93.7185 155.364C93.1928 154.203 92.923 152.852 92.923 151.3H91.923C91.923 152.968 92.2133 154.464 92.8076 155.776L93.7185 155.364ZM92.923 151.3V138.595H91.923V151.3H92.923ZM92.923 138.595C92.923 136.992 93.1828 135.615 93.6867 134.454L92.7694 134.056C92.2 135.368 91.923 136.885 91.923 138.595H92.923ZM93.6881 134.451C94.1862 133.281 94.9482 132.383 95.978 131.739L95.448 130.891C94.2379 131.647 93.3432 132.709 92.768 134.059L93.6881 134.451ZM95.978 131.739C96.9967 131.102 98.332 130.765 100.018 130.765V129.765C98.2041 129.765 96.6694 130.128 95.448 130.891L95.978 131.739ZM100.018 130.765C101.68 130.765 102.99 131.102 103.984 131.736L104.522 130.894C103.323 130.128 101.81 129.765 100.018 129.765V130.765ZM103.988 131.739C105.018 132.383 105.78 133.281 106.278 134.451L107.198 134.059C106.623 132.709 105.728 131.647 104.518 130.891L103.988 131.739ZM106.279 134.454C106.783 135.615 107.043 136.992 107.043 138.595H108.043C108.043 136.885 107.766 135.368 107.197 134.056L106.279 134.454ZM107.043 138.595V151.3H108.043V138.595H107.043ZM107.043 151.3C107.043 152.852 106.773 154.203 106.248 155.364L107.159 155.776C107.753 154.464 108.043 152.968 108.043 151.3H107.043ZM106.249 155.36C105.729 156.487 104.954 157.368 103.918 158.016L104.448 158.864C105.652 158.112 106.557 157.08 107.157 155.78L106.249 155.36ZM103.918 158.016C102.895 158.655 101.605 158.99 100.018 158.99V159.99C101.745 159.99 103.231 159.625 104.448 158.864L103.918 158.016ZM100.018 155.23C100.757 155.23 101.391 154.991 101.792 154.423L100.975 153.847C100.815 154.072 100.539 154.23 100.018 154.23V155.23ZM101.792 154.423C102.119 153.959 102.331 153.421 102.436 152.821L101.45 152.649C101.368 153.122 101.207 153.517 100.975 153.847L101.792 154.423ZM102.436 152.817C102.533 152.236 102.583 151.694 102.583 151.195H101.583C101.583 151.629 101.54 152.114 101.45 152.653L102.436 152.817ZM102.583 151.195V138.7H101.583V151.195H102.583ZM102.583 138.7C102.583 138.156 102.534 137.592 102.436 137.008L101.45 137.172C101.539 137.708 101.583 138.217 101.583 138.7H102.583ZM102.439 137.028C102.361 136.4 102.161 135.841 101.827 135.367L101.01 135.943C101.235 136.263 101.385 136.66 101.447 137.152L102.439 137.028ZM101.834 135.378C101.434 134.778 100.783 134.525 100.018 134.525V135.525C100.559 135.525 100.842 135.692 101.002 135.932L101.834 135.378ZM100.018 134.525C99.2508 134.525 98.5994 134.778 98.1777 135.362L98.9884 135.948C99.1734 135.692 99.4786 135.525 100.018 135.525V134.525ZM98.1746 135.367C97.8444 135.834 97.6335 136.386 97.5299 137.008L98.5162 137.172C98.5993 136.674 98.7617 136.269 98.9915 135.943L98.1746 135.367ZM97.5269 137.028C97.4546 137.607 97.418 138.164 97.418 138.7H98.418C98.418 138.209 98.4515 137.693 98.5192 137.152L97.5269 137.028ZM97.418 138.7V151.195H98.418V138.7H97.418ZM97.418 151.195C97.418 151.694 97.4679 152.236 97.5648 152.817L98.5512 152.653C98.4615 152.114 98.418 151.629 98.418 151.195H97.418ZM97.5654 152.821C97.6713 153.429 97.8993 153.972 98.2559 154.439L99.0502 153.831C98.8001 153.504 98.6315 153.114 98.5507 152.649L97.5654 152.821ZM98.2559 154.439C98.6744 154.986 99.293 155.23 100.018 155.23V154.23C99.5298 154.23 99.2384 154.077 99.0502 153.831L98.2559 154.439Z" fill="#FFF9F9"/>
</g>
</g>
<g id="CBF">
<g id="Rectangle 2" filter="url(#filter2_b_30_85)">
<rect x="16" y="125" width="39" height="36" rx="3" fill="#FFFBFB"/>
<rect x="16" y="125" width="39" height="36" rx="3" stroke="#E8E8E8"/>
</g>
<g id="11">
<path d="M26.7973 159V136.25C26.5873 136.367 26.2956 136.495 25.9223 136.635C25.5723 136.752 25.1873 136.892 24.7673 137.055C24.3473 137.195 23.9506 137.335 23.5773 137.475C23.204 137.592 22.9123 137.697 22.7023 137.79V133.8C22.9823 133.66 23.3556 133.473 23.8223 133.24C24.3123 133.007 24.8256 132.75 25.3623 132.47C25.899 132.19 26.4006 131.887 26.8673 131.56C27.3573 131.233 27.7306 130.93 27.9873 130.65H32.1873V159H26.7973ZM40.435 159V136.25C40.225 136.367 39.9333 136.495 39.56 136.635C39.21 136.752 38.825 136.892 38.405 137.055C37.985 137.195 37.5883 137.335 37.215 137.475C36.8417 137.592 36.55 137.697 36.34 137.79V133.8C36.62 133.66 36.9933 133.473 37.46 133.24C37.95 133.007 38.4633 132.75 39 132.47C39.5367 132.19 40.0383 131.887 40.505 131.56C40.995 131.233 41.3683 130.93 41.625 130.65H45.825V159H40.435Z" fill="#D5957B"/>
<path d="M26.7973 159H26.2973V159.5H26.7973V159ZM26.7973 136.25H27.2973V135.4L26.5545 135.813L26.7973 136.25ZM25.9223 136.635L26.0804 137.109L26.0892 137.106L26.0979 137.103L25.9223 136.635ZM24.7673 137.055L24.9254 137.529L24.9371 137.525L24.9485 137.521L24.7673 137.055ZM23.5773 137.475L23.7264 137.952L23.7398 137.948L23.7529 137.943L23.5773 137.475ZM22.7023 137.79H22.2023V138.559L22.9054 138.247L22.7023 137.79ZM22.7023 133.8L22.4787 133.353L22.2023 133.491V133.8H22.7023ZM23.8223 133.24L23.6073 132.788L23.5987 132.793L23.8223 133.24ZM25.3623 132.47L25.5936 132.913L25.5936 132.913L25.3623 132.47ZM26.8673 131.56L26.5899 131.144L26.5806 131.15L26.8673 131.56ZM27.9873 130.65V130.15H27.7674L27.6187 130.312L27.9873 130.65ZM32.1873 130.65H32.6873V130.15H32.1873V130.65ZM32.1873 159V159.5H32.6873V159H32.1873ZM27.2973 159V136.25H26.2973V159H27.2973ZM26.5545 135.813C26.3755 135.912 26.1099 136.031 25.7467 136.167L26.0979 137.103C26.4814 136.959 26.7991 136.821 27.0401 136.687L26.5545 135.813ZM25.7642 136.161C25.4049 136.28 25.0121 136.423 24.5861 136.589L24.9485 137.521C25.3625 137.36 25.7397 137.223 26.0804 137.109L25.7642 136.161ZM24.6092 136.581C24.184 136.722 23.7814 136.864 23.4017 137.007L23.7529 137.943C24.1198 137.806 24.5106 137.668 24.9254 137.529L24.6092 136.581ZM23.4282 136.998C23.0473 137.117 22.7348 137.228 22.4992 137.333L22.9054 138.247C23.0898 138.165 23.3607 138.067 23.7264 137.952L23.4282 136.998ZM23.2023 137.79V133.8H22.2023V137.79H23.2023ZM22.9259 134.247C23.2059 134.107 23.5792 133.921 24.0459 133.687L23.5987 132.793C23.132 133.026 22.7587 133.213 22.4787 133.353L22.9259 134.247ZM24.0373 133.691C24.5333 133.455 25.0521 133.196 25.5936 132.913L25.131 132.027C24.5991 132.304 24.0913 132.558 23.6073 132.789L24.0373 133.691ZM25.5936 132.913C26.1483 132.624 26.6686 132.309 27.154 131.97L26.5806 131.15C26.1327 131.464 25.6497 131.756 25.131 132.027L25.5936 132.913ZM27.1447 131.976C27.6519 131.638 28.0615 131.309 28.3559 130.988L27.6187 130.312C27.3998 130.551 27.0627 130.829 26.59 131.144L27.1447 131.976ZM27.9873 131.15H32.1873V130.15H27.9873V131.15ZM31.6873 130.65V159H32.6873V130.65H31.6873ZM32.1873 158.5H26.7973V159.5H32.1873V158.5ZM40.435 159H39.935V159.5H40.435V159ZM40.435 136.25H40.935V135.4L40.1922 135.813L40.435 136.25ZM39.56 136.635L39.7181 137.109L39.7269 137.106L39.7356 137.103L39.56 136.635ZM38.405 137.055L38.5631 137.529L38.5748 137.525L38.5862 137.521L38.405 137.055ZM37.215 137.475L37.3641 137.952L37.3775 137.948L37.3906 137.943L37.215 137.475ZM36.34 137.79H35.84V138.559L36.5431 138.247L36.34 137.79ZM36.34 133.8L36.1164 133.353L35.84 133.491V133.8H36.34ZM37.46 133.24L37.245 132.788L37.2364 132.793L37.46 133.24ZM39 132.47L39.2313 132.913V132.913L39 132.47ZM40.505 131.56L40.2276 131.144L40.2183 131.15L40.505 131.56ZM41.625 130.65V130.15H41.4051L41.2564 130.312L41.625 130.65ZM45.825 130.65H46.325V130.15H45.825V130.65ZM45.825 159V159.5H46.325V159H45.825ZM40.935 159V136.25H39.935V159H40.935ZM40.1922 135.813C40.0132 135.912 39.7476 136.031 39.3844 136.167L39.7356 137.103C40.1191 136.959 40.4368 136.821 40.6778 136.687L40.1922 135.813ZM39.4019 136.161C39.0426 136.28 38.6498 136.423 38.2238 136.589L38.5862 137.521C39.0002 137.36 39.3774 137.223 39.7181 137.109L39.4019 136.161ZM38.2469 136.581C37.8217 136.722 37.4191 136.864 37.0394 137.007L37.3906 137.943C37.7575 137.806 38.1483 137.668 38.5631 137.529L38.2469 136.581ZM37.0659 136.998C36.685 137.117 36.3725 137.228 36.1369 137.333L36.5431 138.247C36.7275 138.165 36.9984 138.067 37.3641 137.952L37.0659 136.998ZM36.84 137.79V133.8H35.84V137.79H36.84ZM36.5636 134.247C36.8436 134.107 37.2169 133.921 37.6836 133.687L37.2364 132.793C36.7697 133.026 36.3964 133.213 36.1164 133.353L36.5636 134.247ZM37.675 133.691C38.171 133.455 38.6898 133.196 39.2313 132.913L38.7687 132.027C38.2368 132.304 37.729 132.558 37.245 132.789L37.675 133.691ZM39.2313 132.913C39.786 132.624 40.3063 132.309 40.7917 131.97L40.2183 131.15C39.7704 131.464 39.2874 131.756 38.7687 132.027L39.2313 132.913ZM40.7824 131.976C41.2896 131.638 41.6992 131.309 41.9936 130.988L41.2564 130.312C41.0375 130.551 40.7004 130.829 40.2276 131.144L40.7824 131.976ZM41.625 131.15H45.825V130.15H41.625V131.15ZM45.325 130.65V159H46.325V130.65H45.325ZM45.825 158.5H40.435V159.5H45.825V158.5Z" fill="#FFF9F9"/>
</g>
</g>
<g id="Corp">
<path id="Rectangle 11_2" d="M75 0H118V41V42L114 46H113L75 0Z" fill="#D9D9D9"/>
<path id="7" d="M83.2854 41L88.8954 18.164H81.6024V14.27H93.8784V17.636L88.2354 41H83.2854Z" fill="black"/>
</g>
<g id="Ranc">
<g id="Rectangle 6" filter="url(#filter3_d_30_85)">
<rect x="19" y="44" width="28" height="42" fill="#F9E282"/>
<rect x="19" y="44" width="28" height="42" stroke="#60646E"/>
</g>
<path id="A" d="M25.0626 79L30.0866 53.08H35.9426L40.9346 79H36.0386L35.1106 73.304H31.0146L30.0226 79H25.0626ZM31.4946 70.072H34.5986L33.0306 59.608L31.4946 70.072Z" fill="black"/>
<path id="+" d="M38.8625 55.424V51.882H35.7165V49.858H38.8625V46.404H41.1065V49.858H44.2965V51.882H41.1065V55.424H38.8625Z" fill="black"/>
</g>
<g id="Frame 6">
<g id="CAB">
<mask id="path-20-outside-1_30_85" maskUnits="userSpaceOnUse" x="132" y="49" width="18" height="31" fill="black">
<rect fill="white" x="132" y="49" width="18" height="31"/>
<path d="M141.006 78.396C139.246 78.396 137.838 78.055 136.782 77.373C135.726 76.669 134.967 75.69 134.505 74.436C134.065 73.182 133.845 71.752 133.845 70.146C133.845 69.42 133.911 68.738 134.043 68.1C134.175 67.462 134.373 66.879 134.637 66.351C134.901 65.823 135.22 65.361 135.594 64.965C135.99 64.547 136.452 64.206 136.98 63.942C136.254 63.414 135.616 62.677 135.066 61.731C134.538 60.763 134.263 59.542 134.241 58.068C134.219 56.594 134.461 55.329 134.967 54.273C135.473 53.195 136.232 52.37 137.244 51.798C138.256 51.226 139.51 50.94 141.006 50.94C142.524 50.94 143.778 51.226 144.768 51.798C145.78 52.37 146.528 53.195 147.012 54.273C147.496 55.329 147.727 56.594 147.705 58.068C147.683 59.564 147.408 60.796 146.88 61.764C146.374 62.71 145.747 63.436 144.999 63.942C145.527 64.206 145.978 64.547 146.352 64.965C146.748 65.361 147.078 65.823 147.342 66.351C147.606 66.879 147.804 67.462 147.936 68.1C148.09 68.738 148.167 69.42 148.167 70.146C148.211 71.752 147.991 73.182 147.507 74.436C147.045 75.69 146.286 76.669 145.23 77.373C144.196 78.055 142.788 78.396 141.006 78.396ZM141.006 74.601C141.644 74.601 142.117 74.381 142.425 73.941C142.733 73.501 142.931 72.962 143.019 72.324C143.107 71.686 143.151 71.07 143.151 70.476C143.173 69.772 143.129 69.09 143.019 68.43C142.931 67.77 142.733 67.231 142.425 66.813C142.117 66.395 141.644 66.186 141.006 66.186C140.39 66.186 139.917 66.395 139.587 66.813C139.279 67.231 139.07 67.77 138.96 68.43C138.872 69.068 138.828 69.75 138.828 70.476C138.828 71.07 138.872 71.697 138.96 72.357C139.048 72.995 139.246 73.534 139.554 73.974C139.884 74.392 140.368 74.601 141.006 74.601ZM141.006 62.028C141.446 62.028 141.798 61.863 142.062 61.533C142.348 61.203 142.557 60.73 142.689 60.114C142.821 59.498 142.887 58.772 142.887 57.936C142.887 56.99 142.733 56.231 142.425 55.659C142.139 55.065 141.666 54.768 141.006 54.768C140.346 54.768 139.851 55.065 139.521 55.659C139.213 56.231 139.059 56.979 139.059 57.903C139.059 58.739 139.114 59.476 139.224 60.114C139.356 60.73 139.565 61.203 139.851 61.533C140.159 61.863 140.544 62.028 141.006 62.028Z"/>
</mask>
<path d="M141.006 78.396C139.246 78.396 137.838 78.055 136.782 77.373C135.726 76.669 134.967 75.69 134.505 74.436C134.065 73.182 133.845 71.752 133.845 70.146C133.845 69.42 133.911 68.738 134.043 68.1C134.175 67.462 134.373 66.879 134.637 66.351C134.901 65.823 135.22 65.361 135.594 64.965C135.99 64.547 136.452 64.206 136.98 63.942C136.254 63.414 135.616 62.677 135.066 61.731C134.538 60.763 134.263 59.542 134.241 58.068C134.219 56.594 134.461 55.329 134.967 54.273C135.473 53.195 136.232 52.37 137.244 51.798C138.256 51.226 139.51 50.94 141.006 50.94C142.524 50.94 143.778 51.226 144.768 51.798C145.78 52.37 146.528 53.195 147.012 54.273C147.496 55.329 147.727 56.594 147.705 58.068C147.683 59.564 147.408 60.796 146.88 61.764C146.374 62.71 145.747 63.436 144.999 63.942C145.527 64.206 145.978 64.547 146.352 64.965C146.748 65.361 147.078 65.823 147.342 66.351C147.606 66.879 147.804 67.462 147.936 68.1C148.09 68.738 148.167 69.42 148.167 70.146C148.211 71.752 147.991 73.182 147.507 74.436C147.045 75.69 146.286 76.669 145.23 77.373C144.196 78.055 142.788 78.396 141.006 78.396ZM141.006 74.601C141.644 74.601 142.117 74.381 142.425 73.941C142.733 73.501 142.931 72.962 143.019 72.324C143.107 71.686 143.151 71.07 143.151 70.476C143.173 69.772 143.129 69.09 143.019 68.43C142.931 67.77 142.733 67.231 142.425 66.813C142.117 66.395 141.644 66.186 141.006 66.186C140.39 66.186 139.917 66.395 139.587 66.813C139.279 67.231 139.07 67.77 138.96 68.43C138.872 69.068 138.828 69.75 138.828 70.476C138.828 71.07 138.872 71.697 138.96 72.357C139.048 72.995 139.246 73.534 139.554 73.974C139.884 74.392 140.368 74.601 141.006 74.601ZM141.006 62.028C141.446 62.028 141.798 61.863 142.062 61.533C142.348 61.203 142.557 60.73 142.689 60.114C142.821 59.498 142.887 58.772 142.887 57.936C142.887 56.99 142.733 56.231 142.425 55.659C142.139 55.065 141.666 54.768 141.006 54.768C140.346 54.768 139.851 55.065 139.521 55.659C139.213 56.231 139.059 56.979 139.059 57.903C139.059 58.739 139.114 59.476 139.224 60.114C139.356 60.73 139.565 61.203 139.851 61.533C140.159 61.863 140.544 62.028 141.006 62.028Z" fill="white"/>
<path d="M136.782 77.373L135.95 78.6211L135.959 78.6271L135.968 78.6331L136.782 77.373ZM134.505 74.436L133.09 74.9326L133.094 74.9436L133.098 74.9546L134.505 74.436ZM134.043 68.1L135.512 68.4039L134.043 68.1ZM135.594 64.965L134.505 63.9334L134.504 63.9351L135.594 64.965ZM136.98 63.942L137.651 65.2836L139.858 64.1802L137.862 62.7289L136.98 63.942ZM135.066 61.731L133.749 62.4493L133.759 62.4672L133.769 62.4849L135.066 61.731ZM134.241 58.068L135.741 58.0456L134.241 58.068ZM134.967 54.273L136.32 54.9212L136.325 54.9104L134.967 54.273ZM144.768 51.798L144.018 53.0968L144.024 53.1003L144.03 53.1038L144.768 51.798ZM147.012 54.273L145.644 54.8874L145.649 54.898L147.012 54.273ZM147.705 58.068L146.205 58.0456L146.205 58.0459L147.705 58.068ZM146.88 61.764L145.563 61.0457L145.558 61.0565L146.88 61.764ZM144.999 63.942L144.159 62.6996L142.034 64.1366L144.328 65.2836L144.999 63.942ZM146.352 64.965L145.234 65.9652L145.262 65.9962L145.292 66.0257L146.352 64.965ZM147.936 68.1L146.467 68.4039L146.472 68.428L146.478 68.452L147.936 68.1ZM148.167 70.146H146.667V70.1665L146.668 70.1871L148.167 70.146ZM147.507 74.436L146.108 73.8959L146.104 73.9066L146.1 73.9174L147.507 74.436ZM145.23 77.373L146.056 78.6252L146.062 78.6211L145.23 77.373ZM142.425 73.941L143.654 74.8012L142.425 73.941ZM143.019 72.324L141.533 72.119V72.119L143.019 72.324ZM143.151 70.476L141.652 70.4291L141.651 70.4526V70.476H143.151ZM143.019 68.43L141.532 68.6282L141.536 68.6525L141.54 68.6766L143.019 68.43ZM142.425 66.813L143.633 65.9232L143.633 65.9232L142.425 66.813ZM139.587 66.813L138.41 65.8835L138.394 65.9031L138.38 65.9232L139.587 66.813ZM138.96 68.43L137.481 68.1834L137.477 68.2042L137.474 68.225L138.96 68.43ZM138.96 72.357L137.473 72.5552L137.474 72.562L138.96 72.357ZM139.554 73.974L138.325 74.8342L138.35 74.8696L138.377 74.9035L139.554 73.974ZM142.062 61.533L140.929 60.5506L140.909 60.5729L140.891 60.596L142.062 61.533ZM142.689 60.114L141.222 59.7997L142.689 60.114ZM142.425 55.659L141.074 56.3097L141.088 56.3403L141.104 56.3701L142.425 55.659ZM139.521 55.659L138.21 54.9305L138.205 54.9392L138.2 54.9478L139.521 55.659ZM139.224 60.114L137.746 60.3689L137.751 60.3987L137.757 60.4283L139.224 60.114ZM139.851 61.533L138.718 62.5154L138.736 62.5363L138.755 62.5565L139.851 61.533ZM141.006 76.896C139.424 76.896 138.331 76.5874 137.596 76.1129L135.968 78.6331C137.346 79.5226 139.068 79.896 141.006 79.896V76.896ZM137.614 76.1249C136.837 75.6067 136.271 74.8903 135.913 73.9174L133.098 74.9546C133.663 76.4897 134.615 77.7313 135.95 78.6211L137.614 76.1249ZM135.921 73.9394C135.547 72.8743 135.345 71.617 135.345 70.146H132.345C132.345 71.887 132.584 73.4897 133.09 74.9326L135.921 73.9394ZM135.345 70.146C135.345 69.5107 135.403 68.9313 135.512 68.4039L132.574 67.7961C132.419 68.5447 132.345 69.3293 132.345 70.146H135.345ZM135.512 68.4039C135.62 67.8802 135.779 67.4222 135.979 67.0218L133.296 65.6802C132.968 66.3358 132.73 67.0438 132.574 67.7961L135.512 68.4039ZM135.979 67.0218C136.183 66.6142 136.42 66.2756 136.685 65.9949L134.504 63.9351C134.021 64.4464 133.62 65.0318 133.296 65.6802L135.979 67.0218ZM136.683 65.9966C136.956 65.7087 137.275 65.4715 137.651 65.2836L136.309 62.6004C135.629 62.9405 135.025 63.3853 134.505 63.9334L136.683 65.9966ZM137.862 62.7289C137.338 62.3473 136.831 61.7814 136.363 60.9771L133.769 62.4849C134.402 63.5726 135.171 64.4807 136.098 65.1551L137.862 62.7289ZM136.383 61.0127C136.004 60.3181 135.761 59.3549 135.741 58.0456L132.741 58.0904C132.766 59.7291 133.072 61.2079 133.749 62.4493L136.383 61.0127ZM135.741 58.0456C135.722 56.745 135.937 55.721 136.32 54.9212L133.614 53.6248C132.986 54.937 132.717 56.443 132.741 58.0904L135.741 58.0456ZM136.325 54.9104C136.702 54.1067 137.248 53.5188 137.982 53.1038L136.506 50.4922C135.216 51.2212 134.244 52.2833 133.609 53.6356L136.325 54.9104ZM137.982 53.1038C138.713 52.6906 139.696 52.44 141.006 52.44V49.44C139.324 49.44 137.799 49.7614 136.506 50.4922L137.982 53.1038ZM141.006 52.44C142.344 52.44 143.319 52.6929 144.018 53.0968L145.519 50.4992C144.238 49.7591 142.704 49.44 141.006 49.44V52.44ZM144.03 53.1038C144.759 53.5157 145.288 54.096 145.644 54.8874L148.381 53.6586C147.768 52.294 146.802 51.2243 145.506 50.4922L144.03 53.1038ZM145.649 54.898C146.018 55.704 146.225 56.7367 146.205 58.0456L149.205 58.0904C149.229 56.4513 148.974 54.954 148.376 53.648L145.649 54.898ZM146.205 58.0459C146.186 59.3813 145.941 60.354 145.563 61.0457L148.197 62.4823C148.876 61.238 149.181 59.7467 149.205 58.0901L146.205 58.0459ZM145.558 61.0565C145.145 61.8279 144.67 62.3535 144.159 62.6996L145.84 65.1844C146.824 64.5184 147.603 63.5921 148.203 62.4715L145.558 61.0565ZM144.328 65.2836C144.696 65.4675 144.993 65.6955 145.234 65.9652L147.47 63.9648C146.963 63.3985 146.358 62.9445 145.67 62.6004L144.328 65.2836ZM145.292 66.0257C145.567 66.3016 145.805 66.6302 146.001 67.0218L148.684 65.6802C148.352 65.0158 147.929 64.4204 147.413 63.9043L145.292 66.0257ZM146.001 67.0218C146.201 67.4222 146.359 67.8802 146.467 68.4039L149.405 67.7961C149.249 67.0438 149.012 66.3358 148.684 65.6802L146.001 67.0218ZM146.478 68.452C146.601 68.9633 146.667 69.5262 146.667 70.146H149.667C149.667 69.3138 149.579 68.5127 149.394 67.748L146.478 68.452ZM146.668 70.1871C146.707 71.6326 146.508 72.8595 146.108 73.8959L148.907 74.9761C149.475 73.5045 149.715 71.8714 149.667 70.1049L146.668 70.1871ZM146.1 73.9174C145.741 74.8903 145.175 75.6067 144.398 76.1249L146.062 78.6211C147.397 77.7313 148.349 76.4897 148.915 74.9546L146.1 73.9174ZM144.404 76.1208C143.701 76.5848 142.617 76.896 141.006 76.896V79.896C142.959 79.896 144.691 79.5252 146.056 78.6252L144.404 76.1208ZM141.006 76.101C142.029 76.101 143.01 75.7212 143.654 74.8012L141.196 73.0808C141.19 73.0901 141.189 73.0892 141.195 73.0841C141.198 73.0818 141.201 73.0797 141.203 73.078C141.206 73.0763 141.207 73.0757 141.207 73.0759C141.206 73.0762 141.193 73.0822 141.162 73.0883C141.131 73.0946 141.08 73.101 141.006 73.101V76.101ZM143.654 74.8012C144.123 74.1311 144.391 73.3561 144.505 72.529L141.533 72.119C141.471 72.5679 141.343 72.8709 141.196 73.0808L143.654 74.8012ZM144.505 72.529C144.602 71.8287 144.651 71.144 144.651 70.476H141.651C141.651 70.996 141.613 71.5433 141.533 72.119L144.505 72.529ZM144.65 70.5229C144.675 69.7258 144.626 68.9453 144.499 68.1834L141.54 68.6766C141.633 69.2347 141.671 69.8182 141.652 70.4291L144.65 70.5229ZM144.506 68.2318C144.394 67.3904 144.127 66.594 143.633 65.9232L141.218 67.7028C141.339 67.868 141.469 68.1496 141.532 68.6282L144.506 68.2318ZM143.633 65.9232C142.977 65.0329 141.999 64.686 141.006 64.686V67.686C141.164 67.686 141.227 67.712 141.233 67.7148C141.236 67.7161 141.232 67.7143 141.224 67.7084C141.217 67.7025 141.215 67.699 141.218 67.7028L143.633 65.9232ZM141.006 64.686C140.012 64.686 139.071 65.0461 138.41 65.8835L140.765 67.7425C140.776 67.7278 140.783 67.7223 140.785 67.721C140.786 67.7198 140.789 67.7178 140.796 67.7148C140.808 67.7092 140.868 67.686 141.006 67.686V64.686ZM138.38 65.9232C137.897 66.578 137.619 67.3557 137.481 68.1834L140.44 68.6766C140.522 68.1843 140.661 67.884 140.795 67.7028L138.38 65.9232ZM137.474 68.225C137.376 68.9389 137.328 69.6899 137.328 70.476H140.328C140.328 69.8101 140.369 69.1971 140.446 68.635L137.474 68.225ZM137.328 70.476C137.328 71.1437 137.378 71.8373 137.473 72.5552L140.447 72.1588C140.367 71.5567 140.328 70.9963 140.328 70.476H137.328ZM137.474 72.562C137.588 73.3891 137.856 74.1641 138.325 74.8342L140.783 73.1138C140.636 72.9039 140.508 72.6009 140.446 72.152L137.474 72.562ZM138.377 74.9035C139.049 75.7544 140.01 76.101 141.006 76.101V73.101C140.85 73.101 140.778 73.0754 140.759 73.0672C140.75 73.063 140.746 73.0604 140.746 73.06C140.745 73.0595 140.74 73.0559 140.732 73.0445L138.377 74.9035ZM141.006 63.528C141.88 63.528 142.672 63.1725 143.233 62.47L140.891 60.596C140.889 60.5987 140.894 60.5917 140.908 60.5803C140.923 60.5686 140.942 60.5563 140.964 60.5461C140.985 60.5359 141.003 60.5308 141.014 60.5286C141.024 60.5265 141.022 60.528 141.006 60.528V63.528ZM143.196 62.5154C143.705 61.9283 143.993 61.1891 144.156 60.4283L141.222 59.7997C141.122 60.2709 140.992 60.4777 140.929 60.5506L143.196 62.5154ZM144.156 60.4283C144.316 59.6818 144.387 58.8456 144.387 57.936H141.387C141.387 58.6984 141.327 59.3142 141.222 59.7997L144.156 60.4283ZM144.387 57.936C144.387 56.8472 144.213 55.8155 143.746 54.9478L141.104 56.3701C141.253 56.6465 141.387 57.1328 141.387 57.936H144.387ZM143.777 55.0083C143.534 54.5033 143.17 54.0445 142.654 53.7204C142.138 53.3964 141.566 53.268 141.006 53.268V56.268C141.059 56.268 141.083 56.2739 141.086 56.2747C141.087 56.275 141.075 56.2718 141.058 56.2611C141.041 56.2504 141.033 56.2411 141.034 56.2419C141.035 56.2439 141.051 56.2627 141.074 56.3097L143.777 55.0083ZM141.006 53.268C140.444 53.268 139.881 53.397 139.368 53.7045C138.858 54.0107 138.48 54.4445 138.21 54.9305L140.832 56.3875C140.863 56.3317 140.888 56.3018 140.9 56.2883C140.912 56.2757 140.916 56.2745 140.912 56.277C140.907 56.2796 140.907 56.2787 140.916 56.2764C140.926 56.2738 140.954 56.268 141.006 56.268V53.268ZM138.2 54.9478C137.736 55.8112 137.559 56.8292 137.559 57.903H140.559C140.559 57.1288 140.691 56.6508 140.842 56.3701L138.2 54.9478ZM137.559 57.903C137.559 58.8012 137.618 59.6265 137.746 60.3689L140.702 59.8591C140.61 59.3255 140.559 58.6768 140.559 57.903H137.559ZM137.757 60.4283C137.921 61.1891 138.209 61.9283 138.718 62.5154L140.985 60.5506C140.922 60.4777 140.792 60.2709 140.691 59.7997L137.757 60.4283ZM138.755 62.5565C139.354 63.1984 140.139 63.528 141.006 63.528V60.528C140.98 60.528 140.966 60.5257 140.961 60.5247C140.956 60.5238 140.957 60.5236 140.962 60.5255C140.966 60.5274 140.969 60.5292 140.968 60.529C140.968 60.5285 140.961 60.5233 140.948 60.5095L138.755 62.5565Z" fill="black" mask="url(#path-20-outside-1_30_85)"/>
</g>
</g>
<g id="Frame 3">
<g id="Name" filter="url(#filter4_d_30_85)">
<path d="M57.7625 117V98.8C57.5945 98.8933 57.3611 98.996 57.0625 99.108C56.7825 99.2013 56.4745 99.3133 56.1385 99.444C55.8025 99.556 55.4851 99.668 55.1865 99.78C54.8878 99.8733 54.6545 99.9573 54.4865 100.032V96.84C54.7105 96.728 55.0091 96.5787 55.3825 96.392C55.7745 96.2053 56.1851 96 56.6145 95.776C57.0438 95.552 57.4451 95.3093 57.8185 95.048C58.2105 94.7867 58.5091 94.544 58.7145 94.32H62.0745V117H57.7625ZM72.3966 117V111.708H65.5086V108.32L71.4166 94.32H76.4566V108.404H78.6406V111.708H76.4566V117H72.3966ZM68.9246 108.404H72.3966V98.772L68.9246 108.404ZM85.6868 117.28C84.4921 117.28 83.4934 117.065 82.6908 116.636C81.8881 116.188 81.2814 115.544 80.8708 114.704C80.4601 113.845 80.2548 112.819 80.2548 111.624V106.192C80.2548 104.96 80.4601 103.933 80.8708 103.112C81.2814 102.272 81.8974 101.637 82.7188 101.208C83.5401 100.76 84.5294 100.536 85.6868 100.536C86.9188 100.536 87.9174 100.76 88.6828 101.208C89.4481 101.656 90.0081 102.309 90.3628 103.168C90.7361 104.027 90.9228 105.072 90.9228 106.304V109.132H84.4268V112.268C84.4268 112.735 84.4734 113.117 84.5668 113.416C84.6788 113.715 84.8281 113.929 85.0148 114.06C85.2014 114.172 85.4348 114.228 85.7148 114.228C85.9761 114.228 86.2001 114.172 86.3868 114.06C86.5921 113.929 86.7414 113.733 86.8348 113.472C86.9281 113.211 86.9748 112.865 86.9748 112.436V110.896H90.8948V112.24C90.8948 113.883 90.4468 115.133 89.5508 115.992C88.6548 116.851 87.3668 117.28 85.6868 117.28ZM84.4268 107.116H86.9748V105.52C86.9748 105.053 86.9281 104.68 86.8348 104.4C86.7414 104.101 86.5921 103.896 86.3868 103.784C86.2001 103.653 85.9574 103.588 85.6588 103.588C85.3788 103.588 85.1454 103.653 84.9588 103.784C84.7908 103.915 84.6601 104.148 84.5668 104.484C84.4734 104.801 84.4268 105.259 84.4268 105.856V107.116ZM100.722 117V94.32H106.266C108.188 94.32 109.682 94.572 110.746 95.076C111.828 95.5613 112.594 96.336 113.042 97.4C113.49 98.4453 113.714 99.7893 113.714 101.432V109.692C113.714 111.372 113.49 112.753 113.042 113.836C112.594 114.919 111.838 115.721 110.774 116.244C109.728 116.748 108.263 117 106.378 117H100.722ZM105.342 113.78H106.322C107.18 113.78 107.787 113.649 108.142 113.388C108.515 113.108 108.748 112.707 108.842 112.184C108.935 111.643 108.982 110.98 108.982 110.196V100.844C108.982 100.06 108.916 99.4347 108.786 98.968C108.674 98.4827 108.431 98.128 108.058 97.904C107.703 97.68 107.115 97.568 106.294 97.568H105.342V113.78ZM116.828 117V94.32H121.42V117H116.828Z" fill="white"/>
</g>
</g>
<g id="Frame 4">
<rect id="Rectangle 12" x="17.5" y="17.5" width="32" height="23" rx="0.5" fill="#FFFAFA" stroke="#E5D6D6"/>
<g id="Rectangle 15">
<mask id="path-24-inside-2_30_85" fill="white">
<path d="M18 18H29V40H18V18Z"/>
</mask>
<path d="M18 18H29V40H18V18Z" fill="#2E2B81"/>
<path d="M18 18H29V40H18V18Z" fill="#2E2B81"/>
<path d="M28 18V40H30V18H28Z" fill="#424083" mask="url(#path-24-inside-2_30_85)"/>
</g>
<g id="Rectangle 16" filter="url(#filter5_d_30_85)">
<mask id="path-26-inside-3_30_85" fill="white">
<path d="M38 18H49V40H38V18Z"/>
</mask>
<path d="M38 18H49V40H38V18Z" fill="#2E2B81"/>
<path d="M38 18H49V40H38V18Z" fill="#C5282C"/>
<path d="M39 40V18H37V40H39Z" fill="#B43434" mask="url(#path-26-inside-3_30_85)"/>
</g>
</g>
<g id="TYPE">
<rect id="Rectangle 8" x="61" y="44" width="55" height="41" rx="5" fill="black"/>
<rect id="Rectangle 9" x="64" y="59" width="49" height="23" fill="#FFFDFD"/>
<line id="Line 1" x1="63.4163" y1="59.0908" x2="113.457" y2="82.0047" stroke="black" stroke-width="2"/>
<line id="Line 2" x1="63.5821" y1="82.0915" x2="113.582" y2="59.0915" stroke="black" stroke-width="2"/>
<path id="X X" d="M81.5023 57L83.4223 51.804L81.5743 47.28H83.4463L84.5983 50.076L85.5703 47.28H87.2383L85.4623 52.26L87.4062 57H85.5583L84.2863 53.94L83.1702 57H81.5023ZM90.596 57L92.516 51.804L90.668 47.28H92.54L93.692 50.076L94.664 47.28H96.332L94.556 52.26L96.5 57H94.652L93.38 53.94L92.264 57H90.596Z" fill="white"/>
</g>
</g>
<defs>
<filter id="filter0_d_30_85" x="-4.5" y="-0.5" width="186" height="186" filterUnits="userSpaceOnUse" color-interpolation-filters="sRGB">
<feFlood flood-opacity="0" result="BackgroundImageFix"/>
<feColorMatrix in="SourceAlpha" type="matrix" values="0 0 0 0 0 0 0 0 0 0 0 0 0 0 0 0 0 0 127 0" result="hardAlpha"/>
<feOffset dy="4"/>
<feGaussianBlur stdDeviation="2"/>
<feComposite in2="hardAlpha" operator="out"/>
<feColorMatrix type="matrix" values="0 0 0 0 0 0 0 0 0 0 0 0 0 0 0 0 0 0 0.25 0"/>
<feBlend mode="normal" in2="BackgroundImageFix" result="effect1_dropShadow_30_85"/>
<feBlend mode="normal" in="SourceGraphic" in2="effect1_dropShadow_30_85" result="shape"/>
</filter>
<filter id="filter1_b_30_85" x="59.5" y="120.5" width="57" height="45" filterUnits="userSpaceOnUse" color-interpolation-filters="sRGB">
<feFlood flood-opacity="0" result="BackgroundImageFix"/>
<feGaussianBlur in="BackgroundImageFix" stdDeviation="2"/>
<feComposite in2="SourceAlpha" operator="in" result="effect1_backgroundBlur_30_85"/>
<feBlend mode="normal" in="SourceGraphic" in2="effect1_backgroundBlur_30_85" result="shape"/>
</filter>
<filter id="filter2_b_30_85" x="11.5" y="120.5" width="48" height="45" filterUnits="userSpaceOnUse" color-interpolation-filters="sRGB">
<feFlood flood-opacity="0" result="BackgroundImageFix"/>
<feGaussianBlur in="BackgroundImageFix" stdDeviation="2"/>
<feComposite in2="SourceAlpha" operator="in" result="effect1_backgroundBlur_30_85"/>
<feBlend mode="normal" in="SourceGraphic" in2="effect1_backgroundBlur_30_85" result="shape"/>
</filter>
<filter id="filter3_d_30_85" x="14.5" y="43.5" width="37" height="51" filterUnits="userSpaceOnUse" color-interpolation-filters="sRGB">
<feFlood flood-opacity="0" result="BackgroundImageFix"/>
<feColorMatrix in="SourceAlpha" type="matrix" values="0 0 0 0 0 0 0 0 0 0 0 0 0 0 0 0 0 0 127 0" result="hardAlpha"/>
<feOffset dy="4"/>
<feGaussianBlur stdDeviation="2"/>
<feComposite in2="hardAlpha" operator="out"/>
<feColorMatrix type="matrix" values="0 0 0 0 0 0 0 0 0 0 0 0 0 0 0 0 0 0 0.25 0"/>
<feBlend mode="normal" in2="BackgroundImageFix" result="effect1_dropShadow_30_85"/>
<feBlend mode="normal" in="SourceGraphic" in2="effect1_dropShadow_30_85" result="shape"/>
</filter>
<filter id="filter4_d_30_85" x="50.4865" y="94.32" width="74.934" height="30.96" filterUnits="userSpaceOnUse" color-interpolation-filters="sRGB">
<feFlood flood-opacity="0" result="BackgroundImageFix"/>
<feColorMatrix in="SourceAlpha" type="matrix" values="0 0 0 0 0 0 0 0 0 0 0 0 0 0 0 0 0 0 127 0" result="hardAlpha"/>
<feOffset dy="4"/>
<feGaussianBlur stdDeviation="2"/>
<feComposite in2="hardAlpha" operator="out"/>
<feColorMatrix type="matrix" values="0 0 0 0 0 0 0 0 0 0 0 0 0 0 0 0 0 0 0.25 0"/>
<feBlend mode="normal" in2="BackgroundImageFix" result="effect1_dropShadow_30_85"/>
<feBlend mode="normal" in="SourceGraphic" in2="effect1_dropShadow_30_85" result="shape"/>
</filter>
<filter id="filter5_d_30_85" x="34" y="18" width="19" height="30" filterUnits="userSpaceOnUse" color-interpolation-filters="sRGB">
<feFlood flood-opacity="0" result="BackgroundImageFix"/>
<feColorMatrix in="SourceAlpha" type="matrix" values="0 0 0 0 0 0 0 0 0 0 0 0 0 0 0 0 0 0 127 0" result="hardAlpha"/>
<feOffset dy="4"/>
<feGaussianBlur stdDeviation="2"/>
<feComposite in2="hardAlpha" operator="out"/>
<feColorMatrix type="matrix" values="0 0 0 0 0 0 0 0 0 0 0 0 0 0 0 0 0 0 0.25 0"/>
<feBlend mode="normal" in2="BackgroundImageFix" result="effect1_dropShadow_30_85"/>
<feBlend mode="normal" in="SourceGraphic" in2="effect1_dropShadow_30_85" result="shape"/>
</filter>
</defs>
</svg>
